solid AMBU_CarryM8
facet normal -0.9914448613738106 -0.13052619222005077 -0.0
  outer loop
    vertex 63.86370330515628 95.03527618041015 -96.4999999999997
    vertex 64.0 94.00000000000006 -106.49999999999969
    vertex 64.0 94.00000000000006 -96.4999999999997
  endloop
endfacet
facet normal -0.9914448613738106 -0.13052619222005077 -0.0
  outer loop
    vertex 64.0 94.00000000000006 -106.49999999999969
    vertex 63.86370330515628 95.03527618041015 -96.4999999999997
    vertex 63.86370330515628 95.03527618041015 -106.49999999999969
  endloop
endfacet
facet normal -0.9238795325112863 -0.3826834323650914 -0.0
  outer loop
    vertex 63.46410161513776 96.00000000000006 -96.4999999999997
    vertex 63.86370330515628 95.03527618041015 -106.49999999999969
    vertex 63.86370330515628 95.03527618041015 -96.4999999999997
  endloop
endfacet
facet normal -0.9238795325112863 -0.3826834323650914 -0.0
  outer loop
    vertex 63.86370330515628 95.03527618041015 -106.49999999999969
    vertex 63.46410161513776 96.00000000000006 -96.4999999999997
    vertex 63.46410161513776 96.00000000000006 -106.49999999999969
  endloop
endfacet
facet normal -0.7933533402912322 -0.6087614290087248 -0.0
  outer loop
    vertex 62.82842712474619 96.82842712474626 -96.4999999999997
    vertex 63.46410161513776 96.00000000000006 -106.49999999999969
    vertex 63.46410161513776 96.00000000000006 -96.4999999999997
  endloop
endfacet
facet normal -0.7933533402912322 -0.6087614290087248 -0.0
  outer loop
    vertex 63.46410161513776 96.00000000000006 -106.49999999999969
    vertex 62.82842712474619 96.82842712474626 -96.4999999999997
    vertex 62.82842712474619 96.82842712474626 -106.49999999999969
  endloop
endfacet
facet normal -0.6087614290087179 -0.7933533402912372 -0.0
  outer loop
    vertex 62.82842712474619 96.82842712474626 -96.4999999999997
    vertex 62.0 97.4641016151378 -106.49999999999969
    vertex 62.82842712474619 96.82842712474626 -106.49999999999969
  endloop
endfacet
facet normal -0.6087614290087179 -0.7933533402912372 -0.0
  outer loop
    vertex 62.0 97.4641016151378 -106.49999999999969
    vertex 62.82842712474619 96.82842712474626 -96.4999999999997
    vertex 62.0 97.4641016151378 -96.4999999999997
  endloop
endfacet
facet normal -0.3826834323650914 -0.9238795325112863 -0.0
  outer loop
    vertex 62.0 97.4641016151378 -96.4999999999997
    vertex 61.03527618041008 97.86370330515633 -106.49999999999969
    vertex 62.0 97.4641016151378 -106.49999999999969
  endloop
endfacet
facet normal -0.3826834323650914 -0.9238795325112863 -0.0
  outer loop
    vertex 61.03527618041008 97.86370330515633 -106.49999999999969
    vertex 62.0 97.4641016151378 -96.4999999999997
    vertex 61.03527618041008 97.86370330515633 -96.4999999999997
  endloop
endfacet
facet normal -0.13052619222005216 -0.9914448613738104 -0.0
  outer loop
    vertex 61.03527618041008 97.86370330515633 -96.4999999999997
    vertex 60.0 98.00000000000006 -106.49999999999969
    vertex 61.03527618041008 97.86370330515633 -106.49999999999969
  endloop
endfacet
facet normal -0.13052619222005216 -0.9914448613738104 -0.0
  outer loop
    vertex 60.0 98.00000000000006 -106.49999999999969
    vertex 61.03527618041008 97.86370330515633 -96.4999999999997
    vertex 60.0 98.00000000000006 -96.4999999999997
  endloop
endfacet
facet normal 0.13052619222005216 -0.9914448613738104 0.0
  outer loop
    vertex 60.0 98.00000000000006 -96.4999999999997
    vertex 58.96472381958992 97.86370330515633 -106.49999999999969
    vertex 60.0 98.00000000000006 -106.49999999999969
  endloop
endfacet
facet normal 0.13052619222005216 -0.9914448613738104 0.0
  outer loop
    vertex 58.96472381958992 97.86370330515633 -106.49999999999969
    vertex 60.0 98.00000000000006 -96.4999999999997
    vertex 58.96472381958992 97.86370330515633 -96.4999999999997
  endloop
endfacet
facet normal 0.9238795325112868 0.3826834323650895 -1.1990605029954933e-16
  outer loop
    vertex 26.20444504226561 92.44708572938492 -106.49999999999979
    vertex 26.803847577293386 91.00000000000006 -96.49999999999972
    vertex 26.803847577293386 91.00000000000006 -106.49999999999979
  endloop
endfacet
facet normal 0.9238795325112868 0.3826834323650895 -1.1990605029954933e-16
  outer loop
    vertex 26.803847577293386 91.00000000000006 -96.49999999999972
    vertex 26.20444504226561 92.44708572938492 -106.49999999999979
    vertex 26.20444504226561 92.44708572938492 -96.49999999999972
  endloop
endfacet
facet normal 0.6087614290087197 0.7933533402912359 -2.485810920487462e-16
  outer loop
    vertex 27.75735931288073 89.75735931288078 -96.49999999999972
    vertex 29.00000000000001 88.80384757729344 -106.49999999999979
    vertex 27.75735931288073 89.75735931288078 -106.49999999999979
  endloop
endfacet
facet normal 0.6087614290087197 0.7933533402912359 -2.485810920487462e-16
  outer loop
    vertex 29.00000000000001 88.80384757729344 -106.49999999999979
    vertex 27.75735931288073 89.75735931288078 -96.49999999999972
    vertex 29.00000000000001 88.80384757729344 -96.49999999999972
  endloop
endfacet
facet normal 0.7933533402912413 -0.6087614290087128 0.0
  outer loop
    vertex 57.17157287525381 96.82842712474626 -106.49999999999969
    vertex 56.53589838486224 96.00000000000004 -96.4999999999997
    vertex 56.53589838486224 96.00000000000004 -106.49999999999969
  endloop
endfacet
facet normal 0.7933533402912413 -0.6087614290087128 0.0
  outer loop
    vertex 56.53589838486224 96.00000000000004 -96.4999999999997
    vertex 57.17157287525381 96.82842712474626 -106.49999999999969
    vertex 57.17157287525381 96.82842712474626 -96.4999999999997
  endloop
endfacet
facet normal 0.9914448613738105 0.13052619222005168 -4.089772079501681e-17
  outer loop
    vertex 26.00000000000002 94.00000000000006 -106.49999999999979
    vertex 26.20444504226561 92.44708572938492 -96.49999999999972
    vertex 26.20444504226561 92.44708572938492 -106.49999999999979
  endloop
endfacet
facet normal 0.9914448613738105 0.13052619222005168 -4.089772079501681e-17
  outer loop
    vertex 26.20444504226561 92.44708572938492 -96.49999999999972
    vertex 26.00000000000002 94.00000000000006 -106.49999999999979
    vertex 26.00000000000002 94.00000000000006 -96.49999999999972
  endloop
endfacet
facet normal 0.13052619222005216 0.9914448613738104 -3.1064903092983445e-16
  outer loop
    vertex 30.447085729384877 88.20444504226566 -96.49999999999972
    vertex 31.999999999999996 88.00000000000007 -106.49999999999979
    vertex 30.447085729384877 88.20444504226566 -106.49999999999979
  endloop
endfacet
facet normal 0.13052619222005216 0.9914448613738104 -3.1064903092983445e-16
  outer loop
    vertex 31.999999999999996 88.00000000000007 -106.49999999999979
    vertex 30.447085729384877 88.20444504226566 -96.49999999999972
    vertex 31.999999999999996 88.00000000000007 -96.49999999999972
  endloop
endfacet
facet normal 0.3826834323650895 0.9238795325112868 -2.894788128437629e-16
  outer loop
    vertex 29.00000000000001 88.80384757729344 -96.49999999999972
    vertex 30.447085729384877 88.20444504226566 -106.49999999999979
    vertex 29.00000000000001 88.80384757729344 -106.49999999999979
  endloop
endfacet
facet normal 0.3826834323650895 0.9238795325112868 -2.894788128437629e-16
  outer loop
    vertex 30.447085729384877 88.20444504226566 -106.49999999999979
    vertex 29.00000000000001 88.80384757729344 -96.49999999999972
    vertex 30.447085729384877 88.20444504226566 -96.49999999999972
  endloop
endfacet
facet normal -0.13052619222005168 0.9914448613738105 -3.106490309298345e-16
  outer loop
    vertex 31.999999999999996 88.00000000000007 -96.49999999999972
    vertex 33.552914270615126 88.20444504226566 -106.49999999999979
    vertex 31.999999999999996 88.00000000000007 -106.49999999999979
  endloop
endfacet
facet normal -0.13052619222005168 0.9914448613738105 -3.106490309298345e-16
  outer loop
    vertex 33.552914270615126 88.20444504226566 -106.49999999999979
    vertex 31.999999999999996 88.00000000000007 -96.49999999999972
    vertex 33.552914270615126 88.20444504226566 -96.49999999999972
  endloop
endfacet
facet normal -0.3826834323650895 0.9238795325112868 -2.89478812843763e-16
  outer loop
    vertex 33.552914270615126 88.20444504226566 -96.49999999999972
    vertex 34.99999999999999 88.80384757729344 -106.49999999999979
    vertex 33.552914270615126 88.20444504226566 -106.49999999999979
  endloop
endfacet
facet normal -0.3826834323650895 0.9238795325112868 -2.89478812843763e-16
  outer loop
    vertex 34.99999999999999 88.80384757729344 -106.49999999999979
    vertex 33.552914270615126 88.20444504226566 -96.49999999999972
    vertex 34.99999999999999 88.80384757729344 -96.49999999999972
  endloop
endfacet
facet normal 0.9238795325112863 -0.3826834323650914 0.0
  outer loop
    vertex 56.53589838486224 96.00000000000004 -106.49999999999969
    vertex 56.13629669484373 95.03527618041014 -96.4999999999997
    vertex 56.13629669484373 95.03527618041014 -106.49999999999969
  endloop
endfacet
facet normal 0.9238795325112863 -0.3826834323650914 0.0
  outer loop
    vertex 56.13629669484373 95.03527618041014 -96.4999999999997
    vertex 56.53589838486224 96.00000000000004 -106.49999999999969
    vertex 56.53589838486224 96.00000000000004 -96.4999999999997
  endloop
endfacet
facet normal 0.7933533402912343 0.608761429008722 -1.9074298063028532e-16
  outer loop
    vertex 26.803847577293386 91.00000000000006 -106.49999999999979
    vertex 27.75735931288073 89.75735931288078 -96.49999999999972
    vertex 27.75735931288073 89.75735931288078 -106.49999999999979
  endloop
endfacet
facet normal 0.7933533402912343 0.608761429008722 -1.9074298063028532e-16
  outer loop
    vertex 27.75735931288073 89.75735931288078 -96.49999999999972
    vertex 26.803847577293386 91.00000000000006 -106.49999999999979
    vertex 26.803847577293386 91.00000000000006 -96.49999999999972
  endloop
endfacet
facet normal -0.6087614290087197 0.7933533402912359 -2.485810920487463e-16
  outer loop
    vertex 34.99999999999999 88.80384757729344 -96.49999999999972
    vertex 36.24264068711927 89.75735931288078 -106.49999999999979
    vertex 34.99999999999999 88.80384757729344 -106.49999999999979
  endloop
endfacet
facet normal -0.6087614290087197 0.7933533402912359 -2.485810920487463e-16
  outer loop
    vertex 36.24264068711927 89.75735931288078 -106.49999999999979
    vertex 34.99999999999999 88.80384757729344 -96.49999999999972
    vertex 36.24264068711927 89.75735931288078 -96.49999999999972
  endloop
endfacet
facet normal -0.7933533402912388 0.6087614290087162 -1.9074298063028374e-16
  outer loop
    vertex 37.19615242270661 91.00000000000007 -96.49999999999972
    vertex 36.24264068711927 89.75735931288078 -106.49999999999979
    vertex 36.24264068711927 89.75735931288078 -96.49999999999972
  endloop
endfacet
facet normal -0.7933533402912388 0.6087614290087162 -1.9074298063028374e-16
  outer loop
    vertex 36.24264068711927 89.75735931288078 -106.49999999999979
    vertex 37.19615242270661 91.00000000000007 -96.49999999999972
    vertex 37.19615242270661 91.00000000000007 -106.49999999999979
  endloop
endfacet
facet normal -0.9238795325112868 0.3826834323650895 -1.1990605029954952e-16
  outer loop
    vertex 37.79555495773438 92.44708572938494 -96.49999999999972
    vertex 37.19615242270661 91.00000000000007 -106.49999999999979
    vertex 37.19615242270661 91.00000000000007 -96.49999999999972
  endloop
endfacet
facet normal -0.9238795325112868 0.3826834323650895 -1.1990605029954952e-16
  outer loop
    vertex 37.19615242270661 91.00000000000007 -106.49999999999979
    vertex 37.79555495773438 92.44708572938494 -96.49999999999972
    vertex 37.79555495773438 92.44708572938494 -106.49999999999979
  endloop
endfacet
facet normal -0.9914448613738104 0.13052619222005263 -4.089772079501733e-17
  outer loop
    vertex 37.99999999999998 94.00000000000006 -96.49999999999972
    vertex 37.79555495773438 92.44708572938494 -106.49999999999979
    vertex 37.79555495773438 92.44708572938494 -96.49999999999972
  endloop
endfacet
facet normal -0.9914448613738104 0.13052619222005263 -4.089772079501733e-17
  outer loop
    vertex 37.79555495773438 92.44708572938494 -106.49999999999979
    vertex 37.99999999999998 94.00000000000006 -96.49999999999972
    vertex 37.99999999999998 94.00000000000006 -106.49999999999979
  endloop
endfacet
facet normal 0.6087614290087179 -0.7933533402912372 0.0
  outer loop
    vertex 57.99999999999999 97.4641016151378 -96.4999999999997
    vertex 57.17157287525381 96.82842712474626 -106.49999999999969
    vertex 57.99999999999999 97.4641016151378 -106.49999999999969
  endloop
endfacet
facet normal 0.6087614290087179 -0.7933533402912372 0.0
  outer loop
    vertex 57.17157287525381 96.82842712474626 -106.49999999999969
    vertex 57.99999999999999 97.4641016151378 -96.4999999999997
    vertex 57.17157287525381 96.82842712474626 -96.4999999999997
  endloop
endfacet
facet normal 0.38268343236508756 -0.9238795325112878 0.0
  outer loop
    vertex 58.96472381958992 97.86370330515633 -96.4999999999997
    vertex 57.99999999999999 97.4641016151378 -106.49999999999969
    vertex 58.96472381958992 97.86370330515633 -106.49999999999969
  endloop
endfacet
facet normal 0.38268343236508756 -0.9238795325112878 0.0
  outer loop
    vertex 57.99999999999999 97.4641016151378 -106.49999999999969
    vertex 58.96472381958992 97.86370330515633 -96.4999999999997
    vertex 57.99999999999999 97.4641016151378 -96.4999999999997
  endloop
endfacet
facet normal 0.9914448613738104 -0.13052619222005263 4.089772079501733e-17
  outer loop
    vertex 26.20444504226561 95.55291427061516 -106.49999999999979
    vertex 26.00000000000002 94.00000000000006 -96.49999999999972
    vertex 26.00000000000002 94.00000000000006 -106.49999999999979
  endloop
endfacet
facet normal 0.9914448613738104 -0.13052619222005263 4.089772079501733e-17
  outer loop
    vertex 26.00000000000002 94.00000000000006 -96.49999999999972
    vertex 26.20444504226561 95.55291427061516 -106.49999999999979
    vertex 26.20444504226561 95.55291427061516 -96.49999999999972
  endloop
endfacet
facet normal 0.6087614290087197 -0.7933533402912359 2.485810920487463e-16
  outer loop
    vertex 29.00000000000001 99.19615242270666 -96.49999999999972
    vertex 27.75735931288073 98.24264068711933 -106.49999999999979
    vertex 29.00000000000001 99.19615242270666 -106.49999999999979
  endloop
endfacet
facet normal 0.6087614290087197 -0.7933533402912359 2.485810920487463e-16
  outer loop
    vertex 27.75735931288073 98.24264068711933 -106.49999999999979
    vertex 29.00000000000001 99.19615242270666 -96.49999999999972
    vertex 27.75735931288073 98.24264068711933 -96.49999999999972
  endloop
endfacet
facet normal 0.3826834323650895 -0.9238795325112868 2.89478812843763e-16
  outer loop
    vertex 30.447085729384877 99.79555495773444 -96.49999999999972
    vertex 29.00000000000001 99.19615242270666 -106.49999999999979
    vertex 30.447085729384877 99.79555495773444 -106.49999999999979
  endloop
endfacet
facet normal 0.3826834323650895 -0.9238795325112868 2.89478812843763e-16
  outer loop
    vertex 29.00000000000001 99.19615242270666 -106.49999999999979
    vertex 30.447085729384877 99.79555495773444 -96.49999999999972
    vertex 29.00000000000001 99.19615242270666 -96.49999999999972
  endloop
endfacet
facet normal -0.9238795325112868 -0.3826834323650895 1.1990605029954933e-16
  outer loop
    vertex 37.19615242270661 97.00000000000004 -96.49999999999972
    vertex 37.79555495773438 95.55291427061518 -106.49999999999979
    vertex 37.79555495773438 95.55291427061518 -96.49999999999972
  endloop
endfacet
facet normal -0.9238795325112868 -0.3826834323650895 1.1990605029954933e-16
  outer loop
    vertex 37.79555495773438 95.55291427061518 -106.49999999999979
    vertex 37.19615242270661 97.00000000000004 -96.49999999999972
    vertex 37.19615242270661 97.00000000000004 -106.49999999999979
  endloop
endfacet
facet normal 0.1305261922200663 -0.9914448613738086 3.106490309298339e-16
  outer loop
    vertex 31.999999999999996 100.00000000000006 -96.49999999999973
    vertex 30.447085729384877 99.79555495773444 -106.49999999999979
    vertex 31.999999999999996 100.00000000000006 -106.49999999999979
  endloop
endfacet
facet normal 0.1305261922200663 -0.9914448613738086 3.106490309298339e-16
  outer loop
    vertex 30.447085729384877 99.79555495773444 -106.49999999999979
    vertex 31.999999999999996 100.00000000000006 -96.49999999999973
    vertex 30.447085729384877 99.79555495773444 -96.49999999999972
  endloop
endfacet
facet normal -0.13052619222006678 -0.9914448613738085 3.106490309298339e-16
  outer loop
    vertex 33.55291427061511 99.79555495773444 -96.49999999999972
    vertex 31.999999999999996 100.00000000000006 -106.49999999999979
    vertex 33.55291427061511 99.79555495773444 -106.49999999999979
  endloop
endfacet
facet normal -0.13052619222006678 -0.9914448613738085 3.106490309298339e-16
  outer loop
    vertex 31.999999999999996 100.00000000000006 -106.49999999999979
    vertex 33.55291427061511 99.79555495773444 -96.49999999999972
    vertex 31.999999999999996 100.00000000000006 -96.49999999999973
  endloop
endfacet
facet normal 0.9238795325112868 -0.3826834323650895 1.1990605029954952e-16
  outer loop
    vertex 26.803847577293386 97.00000000000004 -106.49999999999979
    vertex 26.20444504226561 95.55291427061516 -96.49999999999972
    vertex 26.20444504226561 95.55291427061516 -106.49999999999979
  endloop
endfacet
facet normal 0.9238795325112868 -0.3826834323650895 1.1990605029954952e-16
  outer loop
    vertex 26.20444504226561 95.55291427061516 -96.49999999999972
    vertex 26.803847577293386 97.00000000000004 -106.49999999999979
    vertex 26.803847577293386 97.00000000000004 -96.49999999999972
  endloop
endfacet
facet normal -0.3826834323650882 -0.9238795325112874 2.8947881284376304e-16
  outer loop
    vertex 34.999999999999986 99.19615242270666 -96.49999999999972
    vertex 33.55291427061511 99.79555495773444 -106.49999999999979
    vertex 34.999999999999986 99.19615242270666 -106.49999999999979
  endloop
endfacet
facet normal -0.3826834323650882 -0.9238795325112874 2.8947881284376304e-16
  outer loop
    vertex 33.55291427061511 99.79555495773444 -106.49999999999979
    vertex 34.999999999999986 99.19615242270666 -96.49999999999972
    vertex 33.55291427061511 99.79555495773444 -96.49999999999972
  endloop
endfacet
facet normal 0.7933533402912368 -0.6087614290087184 1.9074298063028438e-16
  outer loop
    vertex 27.75735931288073 98.24264068711933 -106.49999999999979
    vertex 26.803847577293386 97.00000000000004 -96.49999999999972
    vertex 26.803847577293386 97.00000000000004 -106.49999999999979
  endloop
endfacet
facet normal 0.7933533402912368 -0.6087614290087184 1.9074298063028438e-16
  outer loop
    vertex 26.803847577293386 97.00000000000004 -96.49999999999972
    vertex 27.75735931288073 98.24264068711933 -106.49999999999979
    vertex 27.75735931288073 98.24264068711933 -96.49999999999972
  endloop
endfacet
facet normal -0.6087614290087197 -0.7933533402912359 2.485810920487462e-16
  outer loop
    vertex 36.24264068711926 98.24264068711933 -96.49999999999972
    vertex 34.999999999999986 99.19615242270666 -106.49999999999979
    vertex 36.24264068711926 98.24264068711933 -106.49999999999979
  endloop
endfacet
facet normal -0.6087614290087197 -0.7933533402912359 2.485810920487462e-16
  outer loop
    vertex 34.999999999999986 99.19615242270666 -106.49999999999979
    vertex 36.24264068711926 98.24264068711933 -96.49999999999972
    vertex 34.999999999999986 99.19615242270666 -96.49999999999972
  endloop
endfacet
facet normal -0.9914448613738105 -0.13052619222005168 4.089772079501681e-17
  outer loop
    vertex 37.79555495773438 95.55291427061518 -96.49999999999972
    vertex 37.99999999999998 94.00000000000006 -106.49999999999979
    vertex 37.99999999999998 94.00000000000006 -96.49999999999972
  endloop
endfacet
facet normal -0.9914448613738105 -0.13052619222005168 4.089772079501681e-17
  outer loop
    vertex 37.99999999999998 94.00000000000006 -106.49999999999979
    vertex 37.79555495773438 95.55291427061518 -96.49999999999972
    vertex 37.79555495773438 95.55291427061518 -106.49999999999979
  endloop
endfacet
facet normal -0.7933533402912343 -0.608761429008722 1.9074298063028532e-16
  outer loop
    vertex 36.24264068711926 98.24264068711933 -96.49999999999972
    vertex 37.19615242270661 97.00000000000004 -106.49999999999979
    vertex 37.19615242270661 97.00000000000004 -96.49999999999972
  endloop
endfacet
facet normal -0.7933533402912343 -0.608761429008722 1.9074298063028532e-16
  outer loop
    vertex 37.19615242270661 97.00000000000004 -106.49999999999979
    vertex 36.24264068711926 98.24264068711933 -96.49999999999972
    vertex 36.24264068711926 98.24264068711933 -106.49999999999979
  endloop
endfacet
facet normal 0.382683432365091 0.9238795325112864 -3.5076651543199275e-15
  outer loop
    vertex 1.999999999999998 90.53589838486229 -96.49999999999969
    vertex 2.9647238195898877 90.13629669484376 -106.49999999999967
    vertex 1.9999999999999707 90.53589838486228 -106.49999999999967
  endloop
endfacet
facet normal 0.382683432365091 0.9238795325112864 -3.5076651543199275e-15
  outer loop
    vertex 2.9647238195898877 90.13629669484376 -106.49999999999967
    vertex 1.999999999999998 90.53589838486229 -96.49999999999969
    vertex 2.9647238195899153 90.13629669484378 -96.49999999999969
  endloop
endfacet
facet normal 0.13052619222005163 0.9914448613738104 -3.0121003538617594e-15
  outer loop
    vertex 2.9647238195899153 90.13629669484378 -96.49999999999969
    vertex 3.9999999999999716 90.00000000000004 -106.49999999999967
    vertex 2.9647238195898877 90.13629669484376 -106.49999999999967
  endloop
endfacet
facet normal 0.13052619222005163 0.9914448613738104 -3.0121003538617594e-15
  outer loop
    vertex 3.9999999999999716 90.00000000000004 -106.49999999999967
    vertex 2.9647238195899153 90.13629669484378 -96.49999999999969
    vertex 3.9999999999999996 90.00000000000004 -96.49999999999969
  endloop
endfacet
facet normal -0.13052619222005118 0.9914448613738105 -2.3112658920191066e-15
  outer loop
    vertex 3.9999999999999996 90.00000000000004 -96.49999999999969
    vertex 5.03527618041006 90.13629669484376 -106.49999999999967
    vertex 3.9999999999999716 90.00000000000004 -106.49999999999967
  endloop
endfacet
facet normal -0.13052619222005118 0.9914448613738105 -2.3112658920191066e-15
  outer loop
    vertex 5.03527618041006 90.13629669484376 -106.49999999999967
    vertex 3.9999999999999996 90.00000000000004 -96.49999999999969
    vertex 5.035276180410088 90.13629669484378 -96.49999999999969
  endloop
endfacet
facet normal 0.9914448613738106 0.13052619222005077 -3.0121003538617555e-15
  outer loop
    vertex -3.172462292866385e-14 94.00000000000004 -106.49999999999967
    vertex 0.1362966948437221 92.96472381958996 -96.49999999999969
    vertex 0.13629669484369528 92.96472381958995 -106.49999999999967
  endloop
endfacet
facet normal 0.9914448613738106 0.13052619222005077 -3.0121003538617555e-15
  outer loop
    vertex 0.1362966948437221 92.96472381958996 -96.49999999999969
    vertex -3.172462292866385e-14 94.00000000000004 -106.49999999999967
    vertex -4.93494134445882e-15 94.00000000000006 -96.49999999999969
  endloop
endfacet
facet normal 0.9914448613738104 -0.13052619222005216 -2.3112658920191007e-15
  outer loop
    vertex 0.13629669484369528 95.03527618041012 -106.49999999999967
    vertex -4.93494134445882e-15 94.00000000000006 -96.49999999999969
    vertex -3.172462292866385e-14 94.00000000000004 -106.49999999999967
  endloop
endfacet
facet normal 0.9914448613738104 -0.13052619222005216 -2.3112658920191007e-15
  outer loop
    vertex -4.93494134445882e-15 94.00000000000006 -96.49999999999969
    vertex 0.13629669484369528 95.03527618041012 -106.49999999999967
    vertex 0.1362966948437221 95.03527618041014 -96.49999999999969
  endloop
endfacet
facet normal 0.9238795325112864 0.3826834323650908 -3.5076651543199247e-15
  outer loop
    vertex 0.13629669484369528 92.96472381958995 -106.49999999999967
    vertex 0.5358983848622413 92.00000000000004 -96.49999999999969
    vertex 0.5358983848622152 92.00000000000003 -106.49999999999967
  endloop
endfacet
facet normal 0.9238795325112864 0.3826834323650908 -3.5076651543199247e-15
  outer loop
    vertex 0.5358983848622413 92.00000000000004 -96.49999999999969
    vertex 0.13629669484369528 92.96472381958995 -106.49999999999967
    vertex 0.1362966948437221 92.96472381958996 -96.49999999999969
  endloop
endfacet
facet normal 0.7933533402912348 0.6087614290087211 -3.764188371201932e-15
  outer loop
    vertex 0.5358983848622152 92.00000000000003 -106.49999999999967
    vertex 1.1715728752538064 91.17157287525386 -96.49999999999967
    vertex 1.1715728752537797 91.17157287525384 -106.49999999999967
  endloop
endfacet
facet normal 0.7933533402912348 0.6087614290087211 -3.764188371201932e-15
  outer loop
    vertex 1.1715728752538064 91.17157287525386 -96.49999999999967
    vertex 0.5358983848622152 92.00000000000003 -106.49999999999967
    vertex 0.5358983848622413 92.00000000000004 -96.49999999999969
  endloop
endfacet
facet normal 0.608761429008717 0.7933533402912382 -3.76418837120193e-15
  outer loop
    vertex 1.1715728752538064 91.17157287525386 -96.49999999999967
    vertex 1.9999999999999707 90.53589838486228 -106.49999999999967
    vertex 1.1715728752537797 91.17157287525384 -106.49999999999967
  endloop
endfacet
facet normal 0.608761429008717 0.7933533402912382 -3.76418837120193e-15
  outer loop
    vertex 1.9999999999999707 90.53589838486228 -106.49999999999967
    vertex 1.1715728752538064 91.17157287525386 -96.49999999999967
    vertex 1.999999999999998 90.53589838486229 -96.49999999999969
  endloop
endfacet
facet normal -0.9914448613738106 -0.13052619222005077 3.0121003538617555e-15
  outer loop
    vertex 8.000000000000002 94.00000000000006 -96.49999999999972
    vertex 7.863703305156247 95.03527618041014 -106.49999999999969
    vertex 7.999999999999974 94.00000000000004 -106.49999999999969
  endloop
endfacet
facet normal -0.9914448613738106 -0.13052619222005077 3.0121003538617555e-15
  outer loop
    vertex 7.863703305156247 95.03527618041014 -106.49999999999969
    vertex 8.000000000000002 94.00000000000006 -96.49999999999972
    vertex 7.8637033051562755 95.03527618041015 -96.49999999999972
  endloop
endfacet
facet normal -0.7933533402912347 -0.6087614290087213 3.7641883712019326e-15
  outer loop
    vertex 7.464101615137755 96.00000000000006 -96.49999999999972
    vertex 6.828427124746161 96.82842712474624 -106.49999999999972
    vertex 7.464101615137727 96.00000000000004 -106.49999999999969
  endloop
endfacet
facet normal -0.7933533402912347 -0.6087614290087213 3.7641883712019326e-15
  outer loop
    vertex 6.828427124746161 96.82842712474624 -106.49999999999972
    vertex 7.464101615137755 96.00000000000006 -96.49999999999972
    vertex 6.82842712474619 96.82842712474626 -96.49999999999972
  endloop
endfacet
facet normal -0.6087614290087173 -0.7933533402912377 3.76418837120193e-15
  outer loop
    vertex 6.82842712474619 96.82842712474626 -96.49999999999972
    vertex 5.999999999999971 97.46410161513779 -106.49999999999969
    vertex 6.828427124746161 96.82842712474624 -106.49999999999972
  endloop
endfacet
facet normal -0.6087614290087173 -0.7933533402912377 3.76418837120193e-15
  outer loop
    vertex 5.999999999999971 97.46410161513779 -106.49999999999969
    vertex 6.82842712474619 96.82842712474626 -96.49999999999972
    vertex 5.999999999999999 97.4641016151378 -96.49999999999972
  endloop
endfacet
facet normal -0.38268343236509156 0.9238795325112861 -1.4529224791828234e-15
  outer loop
    vertex 5.03527618041006 90.13629669484376 -106.49999999999967
    vertex 6.000000000000003 90.53589838486229 -96.4999999999997
    vertex 5.999999999999975 90.53589838486228 -106.49999999999969
  endloop
endfacet
facet normal -0.38268343236509156 0.9238795325112861 -1.4529224791828234e-15
  outer loop
    vertex 6.000000000000003 90.53589838486229 -96.4999999999997
    vertex 5.03527618041006 90.13629669484376 -106.49999999999967
    vertex 5.035276180410088 90.13629669484378 -96.49999999999969
  endloop
endfacet
facet normal -0.9238795325112863 -0.3826834323650914 3.5076651543199267e-15
  outer loop
    vertex 7.8637033051562755 95.03527618041015 -96.49999999999972
    vertex 7.464101615137727 96.00000000000004 -106.49999999999969
    vertex 7.863703305156247 95.03527618041014 -106.49999999999969
  endloop
endfacet
facet normal -0.9238795325112863 -0.3826834323650914 3.5076651543199267e-15
  outer loop
    vertex 7.464101615137727 96.00000000000004 -106.49999999999969
    vertex 7.8637033051562755 95.03527618041015 -96.49999999999972
    vertex 7.464101615137755 96.00000000000006 -96.49999999999972
  endloop
endfacet
facet normal 0.13052619222005157 -0.9914448613738105 2.3112658920191054e-15
  outer loop
    vertex 3.9999999999999982 98.00000000000006 -96.49999999999972
    vertex 2.964723819589886 97.86370330515632 -106.49999999999969
    vertex 3.9999999999999702 98.00000000000004 -106.49999999999969
  endloop
endfacet
facet normal 0.13052619222005157 -0.9914448613738105 2.3112658920191054e-15
  outer loop
    vertex 2.964723819589886 97.86370330515632 -106.49999999999969
    vertex 3.9999999999999982 98.00000000000006 -96.49999999999972
    vertex 2.964723819589913 97.86370330515633 -96.49999999999972
  endloop
endfacet
facet normal -0.1305261922200517 -0.9914448613738105 3.0121003538617602e-15
  outer loop
    vertex 5.035276180410081 97.86370330515633 -96.49999999999972
    vertex 3.9999999999999702 98.00000000000004 -106.49999999999969
    vertex 5.035276180410053 97.86370330515632 -106.49999999999969
  endloop
endfacet
facet normal -0.1305261922200517 -0.9914448613738105 3.0121003538617602e-15
  outer loop
    vertex 3.9999999999999702 98.00000000000004 -106.49999999999969
    vertex 5.035276180410081 97.86370330515633 -96.49999999999972
    vertex 3.9999999999999982 98.00000000000006 -96.49999999999972
  endloop
endfacet
facet normal 0.3826834323650907 -0.9238795325112864 1.4529224791828262e-15
  outer loop
    vertex 2.964723819589913 97.86370330515633 -96.49999999999972
    vertex 1.9999999999999671 97.46410161513779 -106.49999999999969
    vertex 2.964723819589886 97.86370330515632 -106.49999999999969
  endloop
endfacet
facet normal 0.3826834323650907 -0.9238795325112864 1.4529224791828262e-15
  outer loop
    vertex 1.9999999999999671 97.46410161513779 -106.49999999999969
    vertex 2.964723819589913 97.86370330515633 -96.49999999999972
    vertex 1.9999999999999947 97.4641016151378 -96.4999999999997
  endloop
endfacet
facet normal 0.7933533402912388 -0.6087614290087159 -4.955648004581863e-16
  outer loop
    vertex 1.1715728752537788 96.82842712474624 -106.49999999999969
    vertex 0.5358983848622413 96.00000000000004 -96.4999999999997
    vertex 0.5358983848622145 96.00000000000004 -106.49999999999969
  endloop
endfacet
facet normal 0.7933533402912388 -0.6087614290087159 -4.955648004581863e-16
  outer loop
    vertex 0.5358983848622413 96.00000000000004 -96.4999999999997
    vertex 1.1715728752537788 96.82842712474624 -106.49999999999969
    vertex 1.1715728752538057 96.82842712474626 -96.4999999999997
  endloop
endfacet
facet normal 0.9238795325112867 -0.3826834323650902 -1.452922479182825e-15
  outer loop
    vertex 0.5358983848622145 96.00000000000004 -106.49999999999969
    vertex 0.1362966948437221 95.03527618041014 -96.49999999999969
    vertex 0.13629669484369528 95.03527618041012 -106.49999999999967
  endloop
endfacet
facet normal 0.9238795325112867 -0.3826834323650902 -1.452922479182825e-15
  outer loop
    vertex 0.1362966948437221 95.03527618041014 -96.49999999999969
    vertex 0.5358983848622145 96.00000000000004 -106.49999999999969
    vertex 0.5358983848622413 96.00000000000004 -96.4999999999997
  endloop
endfacet
facet normal -0.6087614290087179 0.7933533402912372 -4.955648004581807e-16
  outer loop
    vertex 6.000000000000003 90.53589838486229 -96.4999999999997
    vertex 6.828427124746164 91.17157287525384 -106.49999999999969
    vertex 5.999999999999975 90.53589838486228 -106.49999999999969
  endloop
endfacet
facet normal -0.6087614290087179 0.7933533402912372 -4.955648004581807e-16
  outer loop
    vertex 6.828427124746164 91.17157287525384 -106.49999999999969
    vertex 6.000000000000003 90.53589838486229 -96.4999999999997
    vertex 6.8284271247461925 91.17157287525386 -96.4999999999997
  endloop
endfacet
facet normal -0.7933533402912388 0.6087614290087162 4.955648004581854e-16
  outer loop
    vertex 6.8284271247461925 91.17157287525386 -96.4999999999997
    vertex 7.4641016151377295 92.00000000000004 -106.49999999999969
    vertex 6.828427124746164 91.17157287525384 -106.49999999999969
  endloop
endfacet
facet normal -0.7933533402912388 0.6087614290087162 4.955648004581854e-16
  outer loop
    vertex 7.4641016151377295 92.00000000000004 -106.49999999999969
    vertex 6.8284271247461925 91.17157287525386 -96.4999999999997
    vertex 7.464101615137758 92.00000000000006 -96.4999999999997
  endloop
endfacet
facet normal 0.9914448613738104 -0.13052619222005216 0.0
  outer loop
    vertex 56.13629669484373 95.03527618041014 -106.49999999999969
    vertex 56.0 94.00000000000006 -96.4999999999997
    vertex 56.0 94.00000000000006 -106.49999999999969
  endloop
endfacet
facet normal 0.9914448613738104 -0.13052619222005216 0.0
  outer loop
    vertex 56.0 94.00000000000006 -96.4999999999997
    vertex 56.13629669484373 95.03527618041014 -106.49999999999969
    vertex 56.13629669484373 95.03527618041014 -96.4999999999997
  endloop
endfacet
facet normal 0.9914448613738104 0.13052619222005216 0.0
  outer loop
    vertex 56.0 94.00000000000006 -106.49999999999969
    vertex 56.13629669484373 92.96472381958998 -96.4999999999997
    vertex 56.13629669484373 92.96472381958998 -106.49999999999969
  endloop
endfacet
facet normal 0.9914448613738104 0.13052619222005216 0.0
  outer loop
    vertex 56.13629669484373 92.96472381958998 -96.4999999999997
    vertex 56.0 94.00000000000006 -106.49999999999969
    vertex 56.0 94.00000000000006 -96.4999999999997
  endloop
endfacet
facet normal 0.6087614290087181 -0.7933533402912372 4.955648004581799e-16
  outer loop
    vertex 1.9999999999999947 97.4641016151378 -96.4999999999997
    vertex 1.1715728752537788 96.82842712474624 -106.49999999999969
    vertex 1.9999999999999671 97.46410161513779 -106.49999999999969
  endloop
endfacet
facet normal 0.6087614290087181 -0.7933533402912372 4.955648004581799e-16
  outer loop
    vertex 1.1715728752537788 96.82842712474624 -106.49999999999969
    vertex 1.9999999999999947 97.4641016151378 -96.4999999999997
    vertex 1.1715728752538057 96.82842712474626 -96.4999999999997
  endloop
endfacet
facet normal 0.9238795325112878 0.38268343236508756 0.0
  outer loop
    vertex 56.13629669484373 92.96472381958998 -106.49999999999969
    vertex 56.53589838486224 92.00000000000004 -96.4999999999997
    vertex 56.53589838486224 92.00000000000004 -106.49999999999969
  endloop
endfacet
facet normal 0.9238795325112878 0.38268343236508756 0.0
  outer loop
    vertex 56.53589838486224 92.00000000000004 -96.4999999999997
    vertex 56.13629669484373 92.96472381958998 -106.49999999999969
    vertex 56.13629669484373 92.96472381958998 -96.4999999999997
  endloop
endfacet
facet normal -0.9238795325112867 0.3826834323650902 1.452922479182825e-15
  outer loop
    vertex 7.464101615137758 92.00000000000006 -96.4999999999997
    vertex 7.863703305156249 92.96472381958996 -106.49999999999969
    vertex 7.4641016151377295 92.00000000000004 -106.49999999999969
  endloop
endfacet
facet normal -0.9238795325112867 0.3826834323650902 1.452922479182825e-15
  outer loop
    vertex 7.863703305156249 92.96472381958996 -106.49999999999969
    vertex 7.464101615137758 92.00000000000006 -96.4999999999997
    vertex 7.863703305156276 92.96472381958998 -96.49999999999972
  endloop
endfacet
facet normal -0.38268343236509084 -0.9238795325112863 3.5076651543199263e-15
  outer loop
    vertex 5.999999999999999 97.4641016151378 -96.49999999999972
    vertex 5.035276180410053 97.86370330515632 -106.49999999999969
    vertex 5.999999999999971 97.46410161513779 -106.49999999999969
  endloop
endfacet
facet normal -0.38268343236509084 -0.9238795325112863 3.5076651543199263e-15
  outer loop
    vertex 5.035276180410053 97.86370330515632 -106.49999999999969
    vertex 5.999999999999999 97.4641016151378 -96.49999999999972
    vertex 5.035276180410081 97.86370330515633 -96.49999999999972
  endloop
endfacet
facet normal -0.9914448613738106 0.13052619222005082 2.3112658920191046e-15
  outer loop
    vertex 7.863703305156276 92.96472381958998 -96.49999999999972
    vertex 7.999999999999974 94.00000000000004 -106.49999999999969
    vertex 7.863703305156249 92.96472381958996 -106.49999999999969
  endloop
endfacet
facet normal -0.9914448613738106 0.13052619222005082 2.3112658920191046e-15
  outer loop
    vertex 7.999999999999974 94.00000000000004 -106.49999999999969
    vertex 7.863703305156276 92.96472381958998 -96.49999999999972
    vertex 8.000000000000002 94.00000000000006 -96.49999999999972
  endloop
endfacet
facet normal 0.0 -5.639932965095781e-16 -1.0
  outer loop
    vertex -3.0000000000000004 104.00000000000003 -106.49999999999972
    vertex 0.13629669484369528 95.03527618041012 -106.49999999999967
    vertex -3.0 84.00000000000007 -106.49999999999972
  endloop
endfacet
facet normal 0.0 -5.639932965095781e-16 -1.0
  outer loop
    vertex 0.13629669484369528 95.03527618041012 -106.49999999999967
    vertex -3.0000000000000004 104.00000000000003 -106.49999999999972
    vertex 0.5358983848622145 96.00000000000004 -106.49999999999969
  endloop
endfacet
facet normal 0.0 -5.639932965095781e-16 -1.0
  outer loop
    vertex 0.5358983848622145 96.00000000000004 -106.49999999999969
    vertex -3.0000000000000004 104.00000000000003 -106.49999999999972
    vertex 1.1715728752537788 96.82842712474624 -106.49999999999969
  endloop
endfacet
facet normal 0.0 -5.639932965095781e-16 -1.0
  outer loop
    vertex 1.1715728752537788 96.82842712474624 -106.49999999999969
    vertex -3.0000000000000004 104.00000000000003 -106.49999999999972
    vertex 1.9999999999999671 97.46410161513779 -106.49999999999969
  endloop
endfacet
facet normal 0.0 -5.639932965095781e-16 -1.0
  outer loop
    vertex 1.9999999999999671 97.46410161513779 -106.49999999999969
    vertex -3.0000000000000004 104.00000000000003 -106.49999999999972
    vertex 2.964723819589886 97.86370330515632 -106.49999999999969
  endloop
endfacet
facet normal 0.0 -5.639932965095781e-16 -1.0
  outer loop
    vertex 2.964723819589886 97.86370330515632 -106.49999999999969
    vertex -3.0000000000000004 104.00000000000003 -106.49999999999972
    vertex 3.9999999999999702 98.00000000000004 -106.49999999999969
  endloop
endfacet
facet normal 0.0 -5.639932965095781e-16 -1.0
  outer loop
    vertex 3.9999999999999702 98.00000000000004 -106.49999999999969
    vertex -3.0000000000000004 104.00000000000003 -106.49999999999972
    vertex 66.99999999999999 104.00000000000003 -106.49999999999972
  endloop
endfacet
facet normal 0.0 -5.639932965095781e-16 -1.0
  outer loop
    vertex -3.0 84.00000000000007 -106.49999999999972
    vertex 0.13629669484369528 95.03527618041012 -106.49999999999967
    vertex -3.172462292866385e-14 94.00000000000004 -106.49999999999967
  endloop
endfacet
facet normal 0.0 -5.639932965095781e-16 -1.0
  outer loop
    vertex 3.9999999999999702 98.00000000000004 -106.49999999999969
    vertex 66.99999999999999 104.00000000000003 -106.49999999999972
    vertex 5.035276180410053 97.86370330515632 -106.49999999999969
  endloop
endfacet
facet normal 0.0 -5.639932965095781e-16 -1.0
  outer loop
    vertex 5.035276180410053 97.86370330515632 -106.49999999999969
    vertex 66.99999999999999 104.00000000000003 -106.49999999999972
    vertex 5.999999999999971 97.46410161513779 -106.49999999999969
  endloop
endfacet
facet normal 0.0 -5.639932965095781e-16 -1.0
  outer loop
    vertex 5.999999999999971 97.46410161513779 -106.49999999999969
    vertex 66.99999999999999 104.00000000000003 -106.49999999999972
    vertex 31.999999999999996 100.00000000000006 -106.49999999999979
  endloop
endfacet
facet normal 0.0 -5.639932965095781e-16 -1.0
  outer loop
    vertex 5.999999999999971 97.46410161513779 -106.49999999999969
    vertex 31.999999999999996 100.00000000000006 -106.49999999999979
    vertex 6.828427124746161 96.82842712474624 -106.49999999999972
  endloop
endfacet
facet normal 0.0 -5.639932965095781e-16 -1.0
  outer loop
    vertex 6.828427124746161 96.82842712474624 -106.49999999999972
    vertex 31.999999999999996 100.00000000000006 -106.49999999999979
    vertex 30.447085729384877 99.79555495773444 -106.49999999999979
  endloop
endfacet
facet normal 0.0 -5.639932965095781e-16 -1.0
  outer loop
    vertex 6.828427124746161 96.82842712474624 -106.49999999999972
    vertex 30.447085729384877 99.79555495773444 -106.49999999999979
    vertex 7.464101615137727 96.00000000000004 -106.49999999999969
  endloop
endfacet
facet normal 0.0 -5.639932965095781e-16 -1.0
  outer loop
    vertex 7.464101615137727 96.00000000000004 -106.49999999999969
    vertex 30.447085729384877 99.79555495773444 -106.49999999999979
    vertex 7.863703305156247 95.03527618041014 -106.49999999999969
  endloop
endfacet
facet normal 0.0 -5.639932965095781e-16 -1.0
  outer loop
    vertex 7.863703305156247 95.03527618041014 -106.49999999999969
    vertex 30.447085729384877 99.79555495773444 -106.49999999999979
    vertex 7.999999999999974 94.00000000000004 -106.49999999999969
  endloop
endfacet
facet normal 0.0 -5.639932965095781e-16 -1.0
  outer loop
    vertex 7.999999999999974 94.00000000000004 -106.49999999999969
    vertex 30.447085729384877 99.79555495773444 -106.49999999999979
    vertex 29.00000000000001 99.19615242270666 -106.49999999999979
  endloop
endfacet
facet normal 0.0 -5.639932965095781e-16 -1.0
  outer loop
    vertex 7.999999999999974 94.00000000000004 -106.49999999999969
    vertex 29.00000000000001 99.19615242270666 -106.49999999999979
    vertex 27.75735931288073 98.24264068711933 -106.49999999999979
  endloop
endfacet
facet normal 0.0 -5.639932965095781e-16 -1.0
  outer loop
    vertex 7.999999999999974 94.00000000000004 -106.49999999999969
    vertex 27.75735931288073 98.24264068711933 -106.49999999999979
    vertex 26.803847577293386 97.00000000000004 -106.49999999999979
  endloop
endfacet
facet normal 0.0 -5.639932965095781e-16 -1.0
  outer loop
    vertex 7.999999999999974 94.00000000000004 -106.49999999999969
    vertex 26.803847577293386 97.00000000000004 -106.49999999999979
    vertex 26.20444504226561 95.55291427061516 -106.49999999999979
  endloop
endfacet
facet normal 0.0 -5.639932965095781e-16 -1.0
  outer loop
    vertex 7.999999999999974 94.00000000000004 -106.49999999999969
    vertex 26.20444504226561 95.55291427061516 -106.49999999999979
    vertex 26.00000000000002 94.00000000000006 -106.49999999999979
  endloop
endfacet
facet normal 0.0 -5.639932965095781e-16 -1.0
  outer loop
    vertex 31.999999999999996 100.00000000000006 -106.49999999999979
    vertex 66.99999999999999 104.00000000000003 -106.49999999999972
    vertex 33.55291427061511 99.79555495773444 -106.49999999999979
  endloop
endfacet
facet normal 0.0 -5.639932965095781e-16 -1.0
  outer loop
    vertex 33.55291427061511 99.79555495773444 -106.49999999999979
    vertex 66.99999999999999 104.00000000000003 -106.49999999999972
    vertex 34.999999999999986 99.19615242270666 -106.49999999999979
  endloop
endfacet
facet normal 0.0 -5.639932965095781e-16 -1.0
  outer loop
    vertex 34.999999999999986 99.19615242270666 -106.49999999999979
    vertex 66.99999999999999 104.00000000000003 -106.49999999999972
    vertex 36.24264068711926 98.24264068711933 -106.49999999999979
  endloop
endfacet
facet normal 0.0 -5.639932965095781e-16 -1.0
  outer loop
    vertex 36.24264068711926 98.24264068711933 -106.49999999999979
    vertex 66.99999999999999 104.00000000000003 -106.49999999999972
    vertex 37.19615242270661 97.00000000000004 -106.49999999999979
  endloop
endfacet
facet normal 0.0 -5.639932965095781e-16 -1.0
  outer loop
    vertex 37.19615242270661 97.00000000000004 -106.49999999999979
    vertex 66.99999999999999 104.00000000000003 -106.49999999999972
    vertex 37.79555495773438 95.55291427061518 -106.49999999999979
  endloop
endfacet
facet normal 0.0 -5.639932965095781e-16 -1.0
  outer loop
    vertex 37.79555495773438 95.55291427061518 -106.49999999999979
    vertex 66.99999999999999 104.00000000000003 -106.49999999999972
    vertex 37.99999999999998 94.00000000000006 -106.49999999999979
  endloop
endfacet
facet normal 0.0 -5.639932965095781e-16 -1.0
  outer loop
    vertex 37.99999999999998 94.00000000000006 -106.49999999999979
    vertex 66.99999999999999 104.00000000000003 -106.49999999999972
    vertex 57.99999999999999 97.4641016151378 -106.49999999999969
  endloop
endfacet
facet normal 0.0 -5.639932965095781e-16 -1.0
  outer loop
    vertex 37.99999999999998 94.00000000000006 -106.49999999999979
    vertex 57.99999999999999 97.4641016151378 -106.49999999999969
    vertex 57.17157287525381 96.82842712474626 -106.49999999999969
  endloop
endfacet
facet normal 0.0 -5.639932965095781e-16 -1.0
  outer loop
    vertex 37.99999999999998 94.00000000000006 -106.49999999999979
    vertex 57.17157287525381 96.82842712474626 -106.49999999999969
    vertex 56.53589838486224 96.00000000000004 -106.49999999999969
  endloop
endfacet
facet normal 0.0 -5.639932965095781e-16 -1.0
  outer loop
    vertex 37.99999999999998 94.00000000000006 -106.49999999999979
    vertex 56.53589838486224 96.00000000000004 -106.49999999999969
    vertex 56.13629669484373 95.03527618041014 -106.49999999999969
  endloop
endfacet
facet normal 0.0 -5.639932965095781e-16 -1.0
  outer loop
    vertex 37.99999999999998 94.00000000000006 -106.49999999999979
    vertex 56.13629669484373 95.03527618041014 -106.49999999999969
    vertex 56.0 94.00000000000006 -106.49999999999969
  endloop
endfacet
facet normal 0.0 -5.639932965095781e-16 -1.0
  outer loop
    vertex 57.99999999999999 97.4641016151378 -106.49999999999969
    vertex 66.99999999999999 104.00000000000003 -106.49999999999972
    vertex 58.96472381958992 97.86370330515633 -106.49999999999969
  endloop
endfacet
facet normal 0.0 -5.639932965095781e-16 -1.0
  outer loop
    vertex 58.96472381958992 97.86370330515633 -106.49999999999969
    vertex 66.99999999999999 104.00000000000003 -106.49999999999972
    vertex 60.0 98.00000000000006 -106.49999999999969
  endloop
endfacet
facet normal 0.0 -5.639932965095781e-16 -1.0
  outer loop
    vertex 60.0 98.00000000000006 -106.49999999999969
    vertex 66.99999999999999 104.00000000000003 -106.49999999999972
    vertex 61.03527618041008 97.86370330515633 -106.49999999999969
  endloop
endfacet
facet normal 0.0 -5.639932965095781e-16 -1.0
  outer loop
    vertex 61.03527618041008 97.86370330515633 -106.49999999999969
    vertex 66.99999999999999 104.00000000000003 -106.49999999999972
    vertex 62.0 97.4641016151378 -106.49999999999969
  endloop
endfacet
facet normal 0.0 -5.639932965095781e-16 -1.0
  outer loop
    vertex 62.0 97.4641016151378 -106.49999999999969
    vertex 66.99999999999999 104.00000000000003 -106.49999999999972
    vertex 62.82842712474619 96.82842712474626 -106.49999999999969
  endloop
endfacet
facet normal 0.0 -5.639932965095781e-16 -1.0
  outer loop
    vertex 62.82842712474619 96.82842712474626 -106.49999999999969
    vertex 66.99999999999999 104.00000000000003 -106.49999999999972
    vertex 63.46410161513776 96.00000000000006 -106.49999999999969
  endloop
endfacet
facet normal 0.0 -5.639932965095781e-16 -1.0
  outer loop
    vertex 63.46410161513776 96.00000000000006 -106.49999999999969
    vertex 66.99999999999999 104.00000000000003 -106.49999999999972
    vertex 63.86370330515628 95.03527618041015 -106.49999999999969
  endloop
endfacet
facet normal 0.0 -5.639932965095781e-16 -1.0
  outer loop
    vertex 63.86370330515628 95.03527618041015 -106.49999999999969
    vertex 66.99999999999999 104.00000000000003 -106.49999999999972
    vertex 64.0 94.00000000000006 -106.49999999999969
  endloop
endfacet
facet normal 0.0 -5.639932965095781e-16 -1.0
  outer loop
    vertex -3.0 84.00000000000007 -106.49999999999972
    vertex 3.9999999999999716 90.00000000000004 -106.49999999999967
    vertex 66.99999999999999 84.00000000000007 -106.49999999999972
  endloop
endfacet
facet normal 0.0 -5.639932965095781e-16 -1.0
  outer loop
    vertex 3.9999999999999716 90.00000000000004 -106.49999999999967
    vertex -3.0 84.00000000000007 -106.49999999999972
    vertex 2.9647238195898877 90.13629669484376 -106.49999999999967
  endloop
endfacet
facet normal 0.0 -5.639932965095781e-16 -1.0
  outer loop
    vertex 2.9647238195898877 90.13629669484376 -106.49999999999967
    vertex -3.0 84.00000000000007 -106.49999999999972
    vertex 1.9999999999999707 90.53589838486228 -106.49999999999967
  endloop
endfacet
facet normal 0.0 -5.639932965095781e-16 -1.0
  outer loop
    vertex 1.9999999999999707 90.53589838486228 -106.49999999999967
    vertex -3.0 84.00000000000007 -106.49999999999972
    vertex 1.1715728752537797 91.17157287525384 -106.49999999999967
  endloop
endfacet
facet normal 0.0 -5.639932965095781e-16 -1.0
  outer loop
    vertex 1.1715728752537797 91.17157287525384 -106.49999999999967
    vertex -3.0 84.00000000000007 -106.49999999999972
    vertex 0.5358983848622152 92.00000000000003 -106.49999999999967
  endloop
endfacet
facet normal 0.0 -5.639932965095781e-16 -1.0
  outer loop
    vertex 0.5358983848622152 92.00000000000003 -106.49999999999967
    vertex -3.0 84.00000000000007 -106.49999999999972
    vertex 0.13629669484369528 92.96472381958995 -106.49999999999967
  endloop
endfacet
facet normal 0.0 -5.639932965095781e-16 -1.0
  outer loop
    vertex 0.13629669484369528 92.96472381958995 -106.49999999999967
    vertex -3.0 84.00000000000007 -106.49999999999972
    vertex -3.172462292866385e-14 94.00000000000004 -106.49999999999967
  endloop
endfacet
facet normal 0.0 -5.639932965095781e-16 -1.0
  outer loop
    vertex 66.99999999999999 84.00000000000007 -106.49999999999972
    vertex 3.9999999999999716 90.00000000000004 -106.49999999999967
    vertex 5.03527618041006 90.13629669484376 -106.49999999999967
  endloop
endfacet
facet normal 0.0 -5.639932965095781e-16 -1.0
  outer loop
    vertex 66.99999999999999 84.00000000000007 -106.49999999999972
    vertex 5.03527618041006 90.13629669484376 -106.49999999999967
    vertex 5.999999999999975 90.53589838486228 -106.49999999999969
  endloop
endfacet
facet normal 0.0 -5.639932965095781e-16 -1.0
  outer loop
    vertex 66.99999999999999 84.00000000000007 -106.49999999999972
    vertex 5.999999999999975 90.53589838486228 -106.49999999999969
    vertex 31.999999999999996 88.00000000000007 -106.49999999999979
  endloop
endfacet
facet normal 0.0 -5.639932965095781e-16 -1.0
  outer loop
    vertex 31.999999999999996 88.00000000000007 -106.49999999999979
    vertex 5.999999999999975 90.53589838486228 -106.49999999999969
    vertex 6.828427124746164 91.17157287525384 -106.49999999999969
  endloop
endfacet
facet normal 0.0 -5.639932965095781e-16 -1.0
  outer loop
    vertex 31.999999999999996 88.00000000000007 -106.49999999999979
    vertex 6.828427124746164 91.17157287525384 -106.49999999999969
    vertex 30.447085729384877 88.20444504226566 -106.49999999999979
  endloop
endfacet
facet normal 0.0 -5.639932965095781e-16 -1.0
  outer loop
    vertex 30.447085729384877 88.20444504226566 -106.49999999999979
    vertex 6.828427124746164 91.17157287525384 -106.49999999999969
    vertex 7.4641016151377295 92.00000000000004 -106.49999999999969
  endloop
endfacet
facet normal 0.0 -5.639932965095781e-16 -1.0
  outer loop
    vertex 30.447085729384877 88.20444504226566 -106.49999999999979
    vertex 7.4641016151377295 92.00000000000004 -106.49999999999969
    vertex 7.863703305156249 92.96472381958996 -106.49999999999969
  endloop
endfacet
facet normal 0.0 -5.639932965095781e-16 -1.0
  outer loop
    vertex 30.447085729384877 88.20444504226566 -106.49999999999979
    vertex 7.863703305156249 92.96472381958996 -106.49999999999969
    vertex 7.999999999999974 94.00000000000004 -106.49999999999969
  endloop
endfacet
facet normal 0.0 -5.639932965095781e-16 -1.0
  outer loop
    vertex 30.447085729384877 88.20444504226566 -106.49999999999979
    vertex 7.999999999999974 94.00000000000004 -106.49999999999969
    vertex 29.00000000000001 88.80384757729344 -106.49999999999979
  endloop
endfacet
facet normal 0.0 -5.639932965095781e-16 -1.0
  outer loop
    vertex 29.00000000000001 88.80384757729344 -106.49999999999979
    vertex 7.999999999999974 94.00000000000004 -106.49999999999969
    vertex 27.75735931288073 89.75735931288078 -106.49999999999979
  endloop
endfacet
facet normal 0.0 -5.639932965095781e-16 -1.0
  outer loop
    vertex 27.75735931288073 89.75735931288078 -106.49999999999979
    vertex 7.999999999999974 94.00000000000004 -106.49999999999969
    vertex 26.803847577293386 91.00000000000006 -106.49999999999979
  endloop
endfacet
facet normal 0.0 -5.639932965095781e-16 -1.0
  outer loop
    vertex 26.803847577293386 91.00000000000006 -106.49999999999979
    vertex 7.999999999999974 94.00000000000004 -106.49999999999969
    vertex 26.20444504226561 92.44708572938492 -106.49999999999979
  endloop
endfacet
facet normal 0.0 -5.639932965095781e-16 -1.0
  outer loop
    vertex 26.20444504226561 92.44708572938492 -106.49999999999979
    vertex 7.999999999999974 94.00000000000004 -106.49999999999969
    vertex 26.00000000000002 94.00000000000006 -106.49999999999979
  endloop
endfacet
facet normal 0.0 -5.639932965095781e-16 -1.0
  outer loop
    vertex 66.99999999999999 84.00000000000007 -106.49999999999972
    vertex 31.999999999999996 88.00000000000007 -106.49999999999979
    vertex 33.552914270615126 88.20444504226566 -106.49999999999979
  endloop
endfacet
facet normal 0.0 -5.639932965095781e-16 -1.0
  outer loop
    vertex 66.99999999999999 84.00000000000007 -106.49999999999972
    vertex 33.552914270615126 88.20444504226566 -106.49999999999979
    vertex 34.99999999999999 88.80384757729344 -106.49999999999979
  endloop
endfacet
facet normal 0.0 -5.639932965095781e-16 -1.0
  outer loop
    vertex 66.99999999999999 84.00000000000007 -106.49999999999972
    vertex 34.99999999999999 88.80384757729344 -106.49999999999979
    vertex 36.24264068711927 89.75735931288078 -106.49999999999979
  endloop
endfacet
facet normal 0.0 -5.639932965095781e-16 -1.0
  outer loop
    vertex 66.99999999999999 84.00000000000007 -106.49999999999972
    vertex 36.24264068711927 89.75735931288078 -106.49999999999979
    vertex 37.19615242270661 91.00000000000007 -106.49999999999979
  endloop
endfacet
facet normal 0.0 -5.639932965095781e-16 -1.0
  outer loop
    vertex 66.99999999999999 84.00000000000007 -106.49999999999972
    vertex 37.19615242270661 91.00000000000007 -106.49999999999979
    vertex 37.79555495773438 92.44708572938494 -106.49999999999979
  endloop
endfacet
facet normal 0.0 -5.639932965095781e-16 -1.0
  outer loop
    vertex 66.99999999999999 84.00000000000007 -106.49999999999972
    vertex 37.79555495773438 92.44708572938494 -106.49999999999979
    vertex 37.99999999999998 94.00000000000006 -106.49999999999979
  endloop
endfacet
facet normal 0.0 -5.639932965095781e-16 -1.0
  outer loop
    vertex 66.99999999999999 84.00000000000007 -106.49999999999972
    vertex 37.99999999999998 94.00000000000006 -106.49999999999979
    vertex 58.00000000000001 90.53589838486229 -106.49999999999969
  endloop
endfacet
facet normal 0.0 -5.639932965095781e-16 -1.0
  outer loop
    vertex 58.00000000000001 90.53589838486229 -106.49999999999969
    vertex 37.99999999999998 94.00000000000006 -106.49999999999979
    vertex 57.17157287525381 91.17157287525386 -106.49999999999969
  endloop
endfacet
facet normal 0.0 -5.639932965095781e-16 -1.0
  outer loop
    vertex 57.17157287525381 91.17157287525386 -106.49999999999969
    vertex 37.99999999999998 94.00000000000006 -106.49999999999979
    vertex 56.53589838486224 92.00000000000004 -106.49999999999969
  endloop
endfacet
facet normal 0.0 -5.639932965095781e-16 -1.0
  outer loop
    vertex 56.53589838486224 92.00000000000004 -106.49999999999969
    vertex 37.99999999999998 94.00000000000006 -106.49999999999979
    vertex 56.13629669484373 92.96472381958998 -106.49999999999969
  endloop
endfacet
facet normal 0.0 -5.639932965095781e-16 -1.0
  outer loop
    vertex 56.13629669484373 92.96472381958998 -106.49999999999969
    vertex 37.99999999999998 94.00000000000006 -106.49999999999979
    vertex 56.0 94.00000000000006 -106.49999999999969
  endloop
endfacet
facet normal 0.0 -5.639932965095781e-16 -1.0
  outer loop
    vertex 66.99999999999999 84.00000000000007 -106.49999999999972
    vertex 58.00000000000001 90.53589838486229 -106.49999999999969
    vertex 58.96472381958992 90.13629669484378 -106.49999999999969
  endloop
endfacet
facet normal 0.0 -5.639932965095781e-16 -1.0
  outer loop
    vertex 66.99999999999999 84.00000000000007 -106.49999999999972
    vertex 58.96472381958992 90.13629669484378 -106.49999999999969
    vertex 60.0 90.00000000000004 -106.49999999999969
  endloop
endfacet
facet normal 0.0 -5.639932965095781e-16 -1.0
  outer loop
    vertex 66.99999999999999 84.00000000000007 -106.49999999999972
    vertex 60.0 90.00000000000004 -106.49999999999969
    vertex 61.035276180410094 90.13629669484378 -106.49999999999969
  endloop
endfacet
facet normal 0.0 -5.639932965095781e-16 -1.0
  outer loop
    vertex 66.99999999999999 84.00000000000007 -106.49999999999972
    vertex 61.035276180410094 90.13629669484378 -106.49999999999969
    vertex 62.00000000000001 90.53589838486229 -106.49999999999969
  endloop
endfacet
facet normal 0.0 -5.639932965095781e-16 -1.0
  outer loop
    vertex 66.99999999999999 84.00000000000007 -106.49999999999972
    vertex 62.00000000000001 90.53589838486229 -106.49999999999969
    vertex 62.8284271247462 91.17157287525386 -106.49999999999969
  endloop
endfacet
facet normal 0.0 -5.639932965095781e-16 -1.0
  outer loop
    vertex 66.99999999999999 84.00000000000007 -106.49999999999972
    vertex 62.8284271247462 91.17157287525386 -106.49999999999969
    vertex 63.46410161513776 92.00000000000006 -106.49999999999969
  endloop
endfacet
facet normal 0.0 -5.639932965095781e-16 -1.0
  outer loop
    vertex 66.99999999999999 84.00000000000007 -106.49999999999972
    vertex 63.46410161513776 92.00000000000006 -106.49999999999969
    vertex 63.86370330515628 92.96472381958998 -106.49999999999969
  endloop
endfacet
facet normal 0.0 -5.639932965095781e-16 -1.0
  outer loop
    vertex 66.99999999999999 84.00000000000007 -106.49999999999972
    vertex 63.86370330515628 92.96472381958998 -106.49999999999969
    vertex 64.0 94.00000000000006 -106.49999999999969
  endloop
endfacet
facet normal 0.0 -5.639932965095781e-16 -1.0
  outer loop
    vertex 66.99999999999999 84.00000000000007 -106.49999999999972
    vertex 64.0 94.00000000000006 -106.49999999999969
    vertex 66.99999999999999 104.00000000000003 -106.49999999999972
  endloop
endfacet
facet normal 0.7933533402912372 0.6087614290087179 0.0
  outer loop
    vertex 56.53589838486224 92.00000000000004 -106.49999999999969
    vertex 57.17157287525381 91.17157287525386 -96.4999999999997
    vertex 57.17157287525381 91.17157287525386 -106.49999999999969
  endloop
endfacet
facet normal 0.7933533402912372 0.6087614290087179 0.0
  outer loop
    vertex 57.17157287525381 91.17157287525386 -96.4999999999997
    vertex 56.53589838486224 92.00000000000004 -106.49999999999969
    vertex 56.53589838486224 92.00000000000004 -96.4999999999997
  endloop
endfacet
facet normal -1.0 -8.057047092993992e-17 -0.0
  outer loop
    vertex -3.0 94.00000000000006 -96.49999999999969
    vertex -3.0 84.00000000000007 -106.49999999999972
    vertex -3.0 84.00000000000007 -96.49999999999969
  endloop
endfacet
facet normal -1.0 -8.057047092993992e-17 -0.0
  outer loop
    vertex -3.0 84.00000000000007 -106.49999999999972
    vertex -3.0 94.00000000000006 -96.49999999999969
    vertex -3.0000000000000004 104.00000000000003 -106.49999999999972
  endloop
endfacet
facet normal -1.0 -8.057047092993992e-17 -0.0
  outer loop
    vertex -3.0000000000000004 104.00000000000003 -106.49999999999972
    vertex -3.0 94.00000000000006 -96.49999999999969
    vertex -3.0000000000000004 104.00000000000003 -96.49999999999969
  endloop
endfacet
facet normal -8.057047092993992e-17 1.0 -5.639932965095781e-16
  outer loop
    vertex -3.0000000000000004 104.00000000000003 -96.49999999999969
    vertex 66.99999999999999 104.00000000000003 -106.49999999999972
    vertex -3.0000000000000004 104.00000000000003 -106.49999999999972
  endloop
endfacet
facet normal -8.057047092993992e-17 1.0 -5.639932965095781e-16
  outer loop
    vertex 66.99999999999999 104.00000000000003 -106.49999999999972
    vertex -3.0000000000000004 104.00000000000003 -96.49999999999969
    vertex 66.99999999999999 104.00000000000003 -96.49999999999969
  endloop
endfacet
facet normal 1.0 8.057047092993992e-17 -9.088241100221187e-32
  outer loop
    vertex 66.99999999999999 104.00000000000003 -106.49999999999972
    vertex 66.99999999999999 84.00000000000009 -96.49999999999969
    vertex 66.99999999999999 84.00000000000007 -106.49999999999972
  endloop
endfacet
facet normal 1.0 8.057047092993992e-17 -9.088241100221187e-32
  outer loop
    vertex 66.99999999999999 84.00000000000009 -96.49999999999969
    vertex 66.99999999999999 104.00000000000003 -106.49999999999972
    vertex 66.99999999999999 94.00000000000006 -96.49999999999969
  endloop
endfacet
facet normal 1.0 8.057047092993992e-17 -9.088241100221187e-32
  outer loop
    vertex 66.99999999999999 94.00000000000006 -96.49999999999969
    vertex 66.99999999999999 104.00000000000003 -106.49999999999972
    vertex 66.99999999999999 104.00000000000003 -96.49999999999969
  endloop
endfacet
facet normal 8.057047092993992e-17 -1.0 5.639932965095781e-16
  outer loop
    vertex 66.99999999999999 84.00000000000009 -96.49999999999969
    vertex -3.0 84.00000000000007 -106.49999999999972
    vertex 66.99999999999999 84.00000000000007 -106.49999999999972
  endloop
endfacet
facet normal 8.057047092993992e-17 -1.0 5.639932965095781e-16
  outer loop
    vertex -3.0 84.00000000000007 -106.49999999999972
    vertex 66.99999999999999 84.00000000000009 -96.49999999999969
    vertex -3.0 84.00000000000007 -96.49999999999969
  endloop
endfacet
facet normal 0.3826834323650914 0.9238795325112863 0.0
  outer loop
    vertex 58.00000000000001 90.53589838486229 -96.4999999999997
    vertex 58.96472381958992 90.13629669484378 -106.49999999999969
    vertex 58.00000000000001 90.53589838486229 -106.49999999999969
  endloop
endfacet
facet normal 0.3826834323650914 0.9238795325112863 0.0
  outer loop
    vertex 58.96472381958992 90.13629669484378 -106.49999999999969
    vertex 58.00000000000001 90.53589838486229 -96.4999999999997
    vertex 58.96472381958992 90.13629669484378 -96.4999999999997
  endloop
endfacet
facet normal -7.406862551067583e-17 3.5899274478407925e-16 1.0
  outer loop
    vertex -3.0000000000000004 104.00000000000003 -96.49999999999969
    vertex 3.9999999999999982 98.00000000000006 -96.49999999999972
    vertex 66.99999999999999 104.00000000000003 -96.49999999999969
  endloop
endfacet
facet normal -7.406862551067583e-17 3.5899274478407925e-16 1.0
  outer loop
    vertex 3.9999999999999982 98.00000000000006 -96.49999999999972
    vertex -3.0000000000000004 104.00000000000003 -96.49999999999969
    vertex 2.964723819589913 97.86370330515633 -96.49999999999972
  endloop
endfacet
facet normal -7.406862551067583e-17 3.5899274478407925e-16 1.0
  outer loop
    vertex 2.964723819589913 97.86370330515633 -96.49999999999972
    vertex -3.0000000000000004 104.00000000000003 -96.49999999999969
    vertex 1.9999999999999947 97.4641016151378 -96.4999999999997
  endloop
endfacet
facet normal -7.406862551067583e-17 3.5899274478407925e-16 1.0
  outer loop
    vertex 1.9999999999999947 97.4641016151378 -96.4999999999997
    vertex -3.0000000000000004 104.00000000000003 -96.49999999999969
    vertex -3.0 94.00000000000006 -96.49999999999969
  endloop
endfacet
facet normal -7.406862551067583e-17 3.5899274478407925e-16 1.0
  outer loop
    vertex 1.9999999999999947 97.4641016151378 -96.4999999999997
    vertex -3.0 94.00000000000006 -96.49999999999969
    vertex 1.1715728752538057 96.82842712474626 -96.4999999999997
  endloop
endfacet
facet normal -7.406862551067583e-17 3.5899274478407925e-16 1.0
  outer loop
    vertex 1.1715728752538057 96.82842712474626 -96.4999999999997
    vertex -3.0 94.00000000000006 -96.49999999999969
    vertex 0.5358983848622413 96.00000000000004 -96.4999999999997
  endloop
endfacet
facet normal -7.406862551067583e-17 3.5899274478407925e-16 1.0
  outer loop
    vertex 0.5358983848622413 96.00000000000004 -96.4999999999997
    vertex -3.0 94.00000000000006 -96.49999999999969
    vertex 0.1362966948437221 95.03527618041014 -96.49999999999969
  endloop
endfacet
facet normal -7.406862551067583e-17 3.5899274478407925e-16 1.0
  outer loop
    vertex 0.1362966948437221 95.03527618041014 -96.49999999999969
    vertex -3.0 94.00000000000006 -96.49999999999969
    vertex -4.93494134445882e-15 94.00000000000006 -96.49999999999969
  endloop
endfacet
facet normal -7.406862551067583e-17 3.5899274478407925e-16 1.0
  outer loop
    vertex 66.99999999999999 104.00000000000003 -96.49999999999969
    vertex 3.9999999999999982 98.00000000000006 -96.49999999999972
    vertex 5.035276180410081 97.86370330515633 -96.49999999999972
  endloop
endfacet
facet normal -7.406862551067583e-17 3.5899274478407925e-16 1.0
  outer loop
    vertex 66.99999999999999 104.00000000000003 -96.49999999999969
    vertex 5.035276180410081 97.86370330515633 -96.49999999999972
    vertex 5.999999999999999 97.4641016151378 -96.49999999999972
  endloop
endfacet
facet normal -7.406862551067583e-17 3.5899274478407925e-16 1.0
  outer loop
    vertex 66.99999999999999 104.00000000000003 -96.49999999999969
    vertex 5.999999999999999 97.4641016151378 -96.49999999999972
    vertex 31.999999999999996 100.00000000000006 -96.49999999999973
  endloop
endfacet
facet normal -7.406862551067583e-17 3.5899274478407925e-16 1.0
  outer loop
    vertex 31.999999999999996 100.00000000000006 -96.49999999999973
    vertex 5.999999999999999 97.4641016151378 -96.49999999999972
    vertex 6.82842712474619 96.82842712474626 -96.49999999999972
  endloop
endfacet
facet normal -7.406862551067583e-17 3.5899274478407925e-16 1.0
  outer loop
    vertex 31.999999999999996 100.00000000000006 -96.49999999999973
    vertex 6.82842712474619 96.82842712474626 -96.49999999999972
    vertex 30.447085729384877 99.79555495773444 -96.49999999999972
  endloop
endfacet
facet normal -7.406862551067583e-17 3.5899274478407925e-16 1.0
  outer loop
    vertex 30.447085729384877 99.79555495773444 -96.49999999999972
    vertex 6.82842712474619 96.82842712474626 -96.49999999999972
    vertex 7.464101615137755 96.00000000000006 -96.49999999999972
  endloop
endfacet
facet normal -7.406862551067583e-17 3.5899274478407925e-16 1.0
  outer loop
    vertex 30.447085729384877 99.79555495773444 -96.49999999999972
    vertex 7.464101615137755 96.00000000000006 -96.49999999999972
    vertex 7.8637033051562755 95.03527618041015 -96.49999999999972
  endloop
endfacet
facet normal -7.406862551067583e-17 3.5899274478407925e-16 1.0
  outer loop
    vertex 30.447085729384877 99.79555495773444 -96.49999999999972
    vertex 7.8637033051562755 95.03527618041015 -96.49999999999972
    vertex 8.000000000000002 94.00000000000006 -96.49999999999972
  endloop
endfacet
facet normal -7.406862551067583e-17 3.5899274478407925e-16 1.0
  outer loop
    vertex 30.447085729384877 99.79555495773444 -96.49999999999972
    vertex 8.000000000000002 94.00000000000006 -96.49999999999972
    vertex 29.00000000000001 99.19615242270666 -96.49999999999972
  endloop
endfacet
facet normal -7.406862551067583e-17 3.5899274478407925e-16 1.0
  outer loop
    vertex 29.00000000000001 99.19615242270666 -96.49999999999972
    vertex 8.000000000000002 94.00000000000006 -96.49999999999972
    vertex 27.75735931288073 98.24264068711933 -96.49999999999972
  endloop
endfacet
facet normal -7.406862551067583e-17 3.5899274478407925e-16 1.0
  outer loop
    vertex 27.75735931288073 98.24264068711933 -96.49999999999972
    vertex 8.000000000000002 94.00000000000006 -96.49999999999972
    vertex 26.803847577293386 97.00000000000004 -96.49999999999972
  endloop
endfacet
facet normal -7.406862551067583e-17 3.5899274478407925e-16 1.0
  outer loop
    vertex 26.803847577293386 97.00000000000004 -96.49999999999972
    vertex 8.000000000000002 94.00000000000006 -96.49999999999972
    vertex 26.20444504226561 95.55291427061516 -96.49999999999972
  endloop
endfacet
facet normal -7.406862551067583e-17 3.5899274478407925e-16 1.0
  outer loop
    vertex 26.20444504226561 95.55291427061516 -96.49999999999972
    vertex 8.000000000000002 94.00000000000006 -96.49999999999972
    vertex 26.00000000000002 94.00000000000006 -96.49999999999972
  endloop
endfacet
facet normal -7.406862551067583e-17 3.5899274478407925e-16 1.0
  outer loop
    vertex 66.99999999999999 104.00000000000003 -96.49999999999969
    vertex 31.999999999999996 100.00000000000006 -96.49999999999973
    vertex 33.55291427061511 99.79555495773444 -96.49999999999972
  endloop
endfacet
facet normal -7.406862551067583e-17 3.5899274478407925e-16 1.0
  outer loop
    vertex 66.99999999999999 104.00000000000003 -96.49999999999969
    vertex 33.55291427061511 99.79555495773444 -96.49999999999972
    vertex 34.999999999999986 99.19615242270666 -96.49999999999972
  endloop
endfacet
facet normal -7.406862551067583e-17 3.5899274478407925e-16 1.0
  outer loop
    vertex 66.99999999999999 104.00000000000003 -96.49999999999969
    vertex 34.999999999999986 99.19615242270666 -96.49999999999972
    vertex 36.24264068711926 98.24264068711933 -96.49999999999972
  endloop
endfacet
facet normal -7.406862551067583e-17 3.5899274478407925e-16 1.0
  outer loop
    vertex 66.99999999999999 104.00000000000003 -96.49999999999969
    vertex 36.24264068711926 98.24264068711933 -96.49999999999972
    vertex 37.19615242270661 97.00000000000004 -96.49999999999972
  endloop
endfacet
facet normal -7.406862551067583e-17 3.5899274478407925e-16 1.0
  outer loop
    vertex 66.99999999999999 104.00000000000003 -96.49999999999969
    vertex 37.19615242270661 97.00000000000004 -96.49999999999972
    vertex 37.79555495773438 95.55291427061518 -96.49999999999972
  endloop
endfacet
facet normal -7.406862551067583e-17 3.5899274478407925e-16 1.0
  outer loop
    vertex 66.99999999999999 104.00000000000003 -96.49999999999969
    vertex 37.79555495773438 95.55291427061518 -96.49999999999972
    vertex 37.99999999999998 94.00000000000006 -96.49999999999972
  endloop
endfacet
facet normal -7.406862551067583e-17 3.5899274478407925e-16 1.0
  outer loop
    vertex 66.99999999999999 104.00000000000003 -96.49999999999969
    vertex 37.99999999999998 94.00000000000006 -96.49999999999972
    vertex 57.99999999999999 97.4641016151378 -96.4999999999997
  endloop
endfacet
facet normal -7.406862551067583e-17 3.5899274478407925e-16 1.0
  outer loop
    vertex 57.99999999999999 97.4641016151378 -96.4999999999997
    vertex 37.99999999999998 94.00000000000006 -96.49999999999972
    vertex 57.17157287525381 96.82842712474626 -96.4999999999997
  endloop
endfacet
facet normal -7.406862551067583e-17 3.5899274478407925e-16 1.0
  outer loop
    vertex 57.17157287525381 96.82842712474626 -96.4999999999997
    vertex 37.99999999999998 94.00000000000006 -96.49999999999972
    vertex 56.53589838486224 96.00000000000004 -96.4999999999997
  endloop
endfacet
facet normal -7.406862551067583e-17 3.5899274478407925e-16 1.0
  outer loop
    vertex 56.53589838486224 96.00000000000004 -96.4999999999997
    vertex 37.99999999999998 94.00000000000006 -96.49999999999972
    vertex 56.13629669484373 95.03527618041014 -96.4999999999997
  endloop
endfacet
facet normal -7.406862551067583e-17 3.5899274478407925e-16 1.0
  outer loop
    vertex 56.13629669484373 95.03527618041014 -96.4999999999997
    vertex 37.99999999999998 94.00000000000006 -96.49999999999972
    vertex 56.0 94.00000000000006 -96.4999999999997
  endloop
endfacet
facet normal -7.406862551067583e-17 3.5899274478407925e-16 1.0
  outer loop
    vertex 66.99999999999999 104.00000000000003 -96.49999999999969
    vertex 57.99999999999999 97.4641016151378 -96.4999999999997
    vertex 58.96472381958992 97.86370330515633 -96.4999999999997
  endloop
endfacet
facet normal -7.406862551067583e-17 3.5899274478407925e-16 1.0
  outer loop
    vertex 66.99999999999999 104.00000000000003 -96.49999999999969
    vertex 58.96472381958992 97.86370330515633 -96.4999999999997
    vertex 60.0 98.00000000000006 -96.4999999999997
  endloop
endfacet
facet normal -7.406862551067583e-17 3.5899274478407925e-16 1.0
  outer loop
    vertex 66.99999999999999 104.00000000000003 -96.49999999999969
    vertex 60.0 98.00000000000006 -96.4999999999997
    vertex 61.03527618041008 97.86370330515633 -96.4999999999997
  endloop
endfacet
facet normal -7.406862551067583e-17 3.5899274478407925e-16 1.0
  outer loop
    vertex 66.99999999999999 104.00000000000003 -96.49999999999969
    vertex 61.03527618041008 97.86370330515633 -96.4999999999997
    vertex 62.0 97.4641016151378 -96.4999999999997
  endloop
endfacet
facet normal -7.406862551067583e-17 3.5899274478407925e-16 1.0
  outer loop
    vertex 66.99999999999999 104.00000000000003 -96.49999999999969
    vertex 62.0 97.4641016151378 -96.4999999999997
    vertex 62.82842712474619 96.82842712474626 -96.4999999999997
  endloop
endfacet
facet normal -7.406862551067583e-17 3.5899274478407925e-16 1.0
  outer loop
    vertex 66.99999999999999 104.00000000000003 -96.49999999999969
    vertex 62.82842712474619 96.82842712474626 -96.4999999999997
    vertex 63.46410161513776 96.00000000000006 -96.4999999999997
  endloop
endfacet
facet normal -7.406862551067583e-17 3.5899274478407925e-16 1.0
  outer loop
    vertex 66.99999999999999 104.00000000000003 -96.49999999999969
    vertex 63.46410161513776 96.00000000000006 -96.4999999999997
    vertex 63.86370330515628 95.03527618041015 -96.4999999999997
  endloop
endfacet
facet normal -7.406862551067583e-17 3.5899274478407925e-16 1.0
  outer loop
    vertex 66.99999999999999 104.00000000000003 -96.49999999999969
    vertex 63.86370330515628 95.03527618041015 -96.4999999999997
    vertex 64.0 94.00000000000006 -96.4999999999997
  endloop
endfacet
facet normal -7.406862551067583e-17 3.5899274478407925e-16 1.0
  outer loop
    vertex 66.99999999999999 104.00000000000003 -96.49999999999969
    vertex 64.0 94.00000000000006 -96.4999999999997
    vertex 66.99999999999999 94.00000000000006 -96.49999999999969
  endloop
endfacet
facet normal 9.758150820963088e-17 1.5006065348015556e-16 1.0
  outer loop
    vertex -3.0 84.00000000000007 -96.49999999999969
    vertex -4.93494134445882e-15 94.00000000000006 -96.49999999999969
    vertex -3.0 94.00000000000006 -96.49999999999969
  endloop
endfacet
facet normal 9.758150820963088e-17 1.5006065348015556e-16 1.0
  outer loop
    vertex -4.93494134445882e-15 94.00000000000006 -96.49999999999969
    vertex -3.0 84.00000000000007 -96.49999999999969
    vertex 0.1362966948437221 92.96472381958996 -96.49999999999969
  endloop
endfacet
facet normal 9.758150820963088e-17 1.5006065348015556e-16 1.0
  outer loop
    vertex 0.1362966948437221 92.96472381958996 -96.49999999999969
    vertex -3.0 84.00000000000007 -96.49999999999969
    vertex 0.5358983848622413 92.00000000000004 -96.49999999999969
  endloop
endfacet
facet normal 9.758150820963088e-17 1.5006065348015556e-16 1.0
  outer loop
    vertex 0.5358983848622413 92.00000000000004 -96.49999999999969
    vertex -3.0 84.00000000000007 -96.49999999999969
    vertex 1.1715728752538064 91.17157287525386 -96.49999999999967
  endloop
endfacet
facet normal 9.758150820963088e-17 1.5006065348015556e-16 1.0
  outer loop
    vertex 1.1715728752538064 91.17157287525386 -96.49999999999967
    vertex -3.0 84.00000000000007 -96.49999999999969
    vertex 1.999999999999998 90.53589838486229 -96.49999999999969
  endloop
endfacet
facet normal 9.758150820963088e-17 1.5006065348015556e-16 1.0
  outer loop
    vertex 1.999999999999998 90.53589838486229 -96.49999999999969
    vertex -3.0 84.00000000000007 -96.49999999999969
    vertex 2.9647238195899153 90.13629669484378 -96.49999999999969
  endloop
endfacet
facet normal 9.758150820963088e-17 1.5006065348015556e-16 1.0
  outer loop
    vertex 2.9647238195899153 90.13629669484378 -96.49999999999969
    vertex -3.0 84.00000000000007 -96.49999999999969
    vertex 3.9999999999999996 90.00000000000004 -96.49999999999969
  endloop
endfacet
facet normal 9.758150820963088e-17 1.5006065348015556e-16 1.0
  outer loop
    vertex 3.9999999999999996 90.00000000000004 -96.49999999999969
    vertex -3.0 84.00000000000007 -96.49999999999969
    vertex 66.99999999999999 84.00000000000009 -96.49999999999969
  endloop
endfacet
facet normal 9.758150820963088e-17 1.5006065348015556e-16 1.0
  outer loop
    vertex 3.9999999999999996 90.00000000000004 -96.49999999999969
    vertex 66.99999999999999 84.00000000000009 -96.49999999999969
    vertex 5.035276180410088 90.13629669484378 -96.49999999999969
  endloop
endfacet
facet normal 9.758150820963088e-17 1.5006065348015556e-16 1.0
  outer loop
    vertex 5.035276180410088 90.13629669484378 -96.49999999999969
    vertex 66.99999999999999 84.00000000000009 -96.49999999999969
    vertex 6.000000000000003 90.53589838486229 -96.4999999999997
  endloop
endfacet
facet normal 9.758150820963088e-17 1.5006065348015556e-16 1.0
  outer loop
    vertex 6.000000000000003 90.53589838486229 -96.4999999999997
    vertex 66.99999999999999 84.00000000000009 -96.49999999999969
    vertex 31.999999999999996 88.00000000000007 -96.49999999999972
  endloop
endfacet
facet normal 9.758150820963088e-17 1.5006065348015556e-16 1.0
  outer loop
    vertex 6.000000000000003 90.53589838486229 -96.4999999999997
    vertex 31.999999999999996 88.00000000000007 -96.49999999999972
    vertex 6.8284271247461925 91.17157287525386 -96.4999999999997
  endloop
endfacet
facet normal 9.758150820963088e-17 1.5006065348015556e-16 1.0
  outer loop
    vertex 6.8284271247461925 91.17157287525386 -96.4999999999997
    vertex 31.999999999999996 88.00000000000007 -96.49999999999972
    vertex 30.447085729384877 88.20444504226566 -96.49999999999972
  endloop
endfacet
facet normal 9.758150820963088e-17 1.5006065348015556e-16 1.0
  outer loop
    vertex 6.8284271247461925 91.17157287525386 -96.4999999999997
    vertex 30.447085729384877 88.20444504226566 -96.49999999999972
    vertex 7.464101615137758 92.00000000000006 -96.4999999999997
  endloop
endfacet
facet normal 9.758150820963088e-17 1.5006065348015556e-16 1.0
  outer loop
    vertex 7.464101615137758 92.00000000000006 -96.4999999999997
    vertex 30.447085729384877 88.20444504226566 -96.49999999999972
    vertex 7.863703305156276 92.96472381958998 -96.49999999999972
  endloop
endfacet
facet normal 9.758150820963088e-17 1.5006065348015556e-16 1.0
  outer loop
    vertex 7.863703305156276 92.96472381958998 -96.49999999999972
    vertex 30.447085729384877 88.20444504226566 -96.49999999999972
    vertex 8.000000000000002 94.00000000000006 -96.49999999999972
  endloop
endfacet
facet normal 9.758150820963088e-17 1.5006065348015556e-16 1.0
  outer loop
    vertex 8.000000000000002 94.00000000000006 -96.49999999999972
    vertex 30.447085729384877 88.20444504226566 -96.49999999999972
    vertex 29.00000000000001 88.80384757729344 -96.49999999999972
  endloop
endfacet
facet normal 9.758150820963088e-17 1.5006065348015556e-16 1.0
  outer loop
    vertex 8.000000000000002 94.00000000000006 -96.49999999999972
    vertex 29.00000000000001 88.80384757729344 -96.49999999999972
    vertex 27.75735931288073 89.75735931288078 -96.49999999999972
  endloop
endfacet
facet normal 9.758150820963088e-17 1.5006065348015556e-16 1.0
  outer loop
    vertex 8.000000000000002 94.00000000000006 -96.49999999999972
    vertex 27.75735931288073 89.75735931288078 -96.49999999999972
    vertex 26.803847577293386 91.00000000000006 -96.49999999999972
  endloop
endfacet
facet normal 9.758150820963088e-17 1.5006065348015556e-16 1.0
  outer loop
    vertex 8.000000000000002 94.00000000000006 -96.49999999999972
    vertex 26.803847577293386 91.00000000000006 -96.49999999999972
    vertex 26.20444504226561 92.44708572938492 -96.49999999999972
  endloop
endfacet
facet normal 9.758150820963088e-17 1.5006065348015556e-16 1.0
  outer loop
    vertex 8.000000000000002 94.00000000000006 -96.49999999999972
    vertex 26.20444504226561 92.44708572938492 -96.49999999999972
    vertex 26.00000000000002 94.00000000000006 -96.49999999999972
  endloop
endfacet
facet normal 9.758150820963088e-17 1.5006065348015556e-16 1.0
  outer loop
    vertex 31.999999999999996 88.00000000000007 -96.49999999999972
    vertex 66.99999999999999 84.00000000000009 -96.49999999999969
    vertex 33.552914270615126 88.20444504226566 -96.49999999999972
  endloop
endfacet
facet normal 9.758150820963088e-17 1.5006065348015556e-16 1.0
  outer loop
    vertex 33.552914270615126 88.20444504226566 -96.49999999999972
    vertex 66.99999999999999 84.00000000000009 -96.49999999999969
    vertex 34.99999999999999 88.80384757729344 -96.49999999999972
  endloop
endfacet
facet normal 9.758150820963088e-17 1.5006065348015556e-16 1.0
  outer loop
    vertex 34.99999999999999 88.80384757729344 -96.49999999999972
    vertex 66.99999999999999 84.00000000000009 -96.49999999999969
    vertex 36.24264068711927 89.75735931288078 -96.49999999999972
  endloop
endfacet
facet normal 9.758150820963088e-17 1.5006065348015556e-16 1.0
  outer loop
    vertex 36.24264068711927 89.75735931288078 -96.49999999999972
    vertex 66.99999999999999 84.00000000000009 -96.49999999999969
    vertex 37.19615242270661 91.00000000000007 -96.49999999999972
  endloop
endfacet
facet normal 9.758150820963088e-17 1.5006065348015556e-16 1.0
  outer loop
    vertex 37.19615242270661 91.00000000000007 -96.49999999999972
    vertex 66.99999999999999 84.00000000000009 -96.49999999999969
    vertex 37.79555495773438 92.44708572938494 -96.49999999999972
  endloop
endfacet
facet normal 9.758150820963088e-17 1.5006065348015556e-16 1.0
  outer loop
    vertex 37.79555495773438 92.44708572938494 -96.49999999999972
    vertex 66.99999999999999 84.00000000000009 -96.49999999999969
    vertex 37.99999999999998 94.00000000000006 -96.49999999999972
  endloop
endfacet
facet normal 9.758150820963088e-17 1.5006065348015556e-16 1.0
  outer loop
    vertex 37.99999999999998 94.00000000000006 -96.49999999999972
    vertex 66.99999999999999 84.00000000000009 -96.49999999999969
    vertex 58.00000000000001 90.53589838486229 -96.4999999999997
  endloop
endfacet
facet normal 9.758150820963088e-17 1.5006065348015556e-16 1.0
  outer loop
    vertex 37.99999999999998 94.00000000000006 -96.49999999999972
    vertex 58.00000000000001 90.53589838486229 -96.4999999999997
    vertex 57.17157287525381 91.17157287525386 -96.4999999999997
  endloop
endfacet
facet normal 9.758150820963088e-17 1.5006065348015556e-16 1.0
  outer loop
    vertex 37.99999999999998 94.00000000000006 -96.49999999999972
    vertex 57.17157287525381 91.17157287525386 -96.4999999999997
    vertex 56.53589838486224 92.00000000000004 -96.4999999999997
  endloop
endfacet
facet normal 9.758150820963088e-17 1.5006065348015556e-16 1.0
  outer loop
    vertex 37.99999999999998 94.00000000000006 -96.49999999999972
    vertex 56.53589838486224 92.00000000000004 -96.4999999999997
    vertex 56.13629669484373 92.96472381958998 -96.4999999999997
  endloop
endfacet
facet normal 9.758150820963088e-17 1.5006065348015556e-16 1.0
  outer loop
    vertex 37.99999999999998 94.00000000000006 -96.49999999999972
    vertex 56.13629669484373 92.96472381958998 -96.4999999999997
    vertex 56.0 94.00000000000006 -96.4999999999997
  endloop
endfacet
facet normal 9.758150820963088e-17 1.5006065348015556e-16 1.0
  outer loop
    vertex 58.00000000000001 90.53589838486229 -96.4999999999997
    vertex 66.99999999999999 84.00000000000009 -96.49999999999969
    vertex 58.96472381958992 90.13629669484378 -96.4999999999997
  endloop
endfacet
facet normal 9.758150820963088e-17 1.5006065348015556e-16 1.0
  outer loop
    vertex 58.96472381958992 90.13629669484378 -96.4999999999997
    vertex 66.99999999999999 84.00000000000009 -96.49999999999969
    vertex 60.0 90.00000000000004 -96.4999999999997
  endloop
endfacet
facet normal 9.758150820963088e-17 1.5006065348015556e-16 1.0
  outer loop
    vertex 60.0 90.00000000000004 -96.4999999999997
    vertex 66.99999999999999 84.00000000000009 -96.49999999999969
    vertex 61.035276180410094 90.13629669484378 -96.4999999999997
  endloop
endfacet
facet normal 9.758150820963088e-17 1.5006065348015556e-16 1.0
  outer loop
    vertex 61.035276180410094 90.13629669484378 -96.4999999999997
    vertex 66.99999999999999 84.00000000000009 -96.49999999999969
    vertex 62.00000000000001 90.53589838486229 -96.4999999999997
  endloop
endfacet
facet normal 9.758150820963088e-17 1.5006065348015556e-16 1.0
  outer loop
    vertex 62.00000000000001 90.53589838486229 -96.4999999999997
    vertex 66.99999999999999 84.00000000000009 -96.49999999999969
    vertex 62.8284271247462 91.17157287525386 -96.4999999999997
  endloop
endfacet
facet normal 9.758150820963088e-17 1.5006065348015556e-16 1.0
  outer loop
    vertex 62.8284271247462 91.17157287525386 -96.4999999999997
    vertex 66.99999999999999 84.00000000000009 -96.49999999999969
    vertex 63.46410161513776 92.00000000000006 -96.4999999999997
  endloop
endfacet
facet normal 9.758150820963088e-17 1.5006065348015556e-16 1.0
  outer loop
    vertex 63.46410161513776 92.00000000000006 -96.4999999999997
    vertex 66.99999999999999 84.00000000000009 -96.49999999999969
    vertex 63.86370330515628 92.96472381958998 -96.4999999999997
  endloop
endfacet
facet normal 9.758150820963088e-17 1.5006065348015556e-16 1.0
  outer loop
    vertex 63.86370330515628 92.96472381958998 -96.4999999999997
    vertex 66.99999999999999 84.00000000000009 -96.49999999999969
    vertex 64.0 94.00000000000006 -96.4999999999997
  endloop
endfacet
facet normal 9.758150820963088e-17 1.5006065348015556e-16 1.0
  outer loop
    vertex 64.0 94.00000000000006 -96.4999999999997
    vertex 66.99999999999999 84.00000000000009 -96.49999999999969
    vertex 66.99999999999999 94.00000000000006 -96.49999999999969
  endloop
endfacet
facet normal -0.6087614290087179 0.7933533402912372 0.0
  outer loop
    vertex 62.00000000000001 90.53589838486229 -96.4999999999997
    vertex 62.8284271247462 91.17157287525386 -106.49999999999969
    vertex 62.00000000000001 90.53589838486229 -106.49999999999969
  endloop
endfacet
facet normal -0.6087614290087179 0.7933533402912372 0.0
  outer loop
    vertex 62.8284271247462 91.17157287525386 -106.49999999999969
    vertex 62.00000000000001 90.53589838486229 -96.4999999999997
    vertex 62.8284271247462 91.17157287525386 -96.4999999999997
  endloop
endfacet
facet normal -0.3826834323650914 0.9238795325112863 0.0
  outer loop
    vertex 61.035276180410094 90.13629669484378 -96.4999999999997
    vertex 62.00000000000001 90.53589838486229 -106.49999999999969
    vertex 61.035276180410094 90.13629669484378 -106.49999999999969
  endloop
endfacet
facet normal -0.3826834323650914 0.9238795325112863 0.0
  outer loop
    vertex 62.00000000000001 90.53589838486229 -106.49999999999969
    vertex 61.035276180410094 90.13629669484378 -96.4999999999997
    vertex 62.00000000000001 90.53589838486229 -96.4999999999997
  endloop
endfacet
facet normal -0.7933533402912413 0.6087614290087128 0.0
  outer loop
    vertex 63.46410161513776 92.00000000000006 -96.4999999999997
    vertex 62.8284271247462 91.17157287525386 -106.49999999999969
    vertex 62.8284271247462 91.17157287525386 -96.4999999999997
  endloop
endfacet
facet normal -0.7933533402912413 0.6087614290087128 0.0
  outer loop
    vertex 62.8284271247462 91.17157287525386 -106.49999999999969
    vertex 63.46410161513776 92.00000000000006 -96.4999999999997
    vertex 63.46410161513776 92.00000000000006 -106.49999999999969
  endloop
endfacet
facet normal -0.9238795325112863 0.3826834323650914 0.0
  outer loop
    vertex 63.86370330515628 92.96472381958998 -96.4999999999997
    vertex 63.46410161513776 92.00000000000006 -106.49999999999969
    vertex 63.46410161513776 92.00000000000006 -96.4999999999997
  endloop
endfacet
facet normal -0.9238795325112863 0.3826834323650914 0.0
  outer loop
    vertex 63.46410161513776 92.00000000000006 -106.49999999999969
    vertex 63.86370330515628 92.96472381958998 -96.4999999999997
    vertex 63.86370330515628 92.96472381958998 -106.49999999999969
  endloop
endfacet
facet normal 0.6087614290087128 0.7933533402912413 0.0
  outer loop
    vertex 57.17157287525381 91.17157287525386 -96.4999999999997
    vertex 58.00000000000001 90.53589838486229 -106.49999999999969
    vertex 57.17157287525381 91.17157287525386 -106.49999999999969
  endloop
endfacet
facet normal 0.6087614290087128 0.7933533402912413 0.0
  outer loop
    vertex 58.00000000000001 90.53589838486229 -106.49999999999969
    vertex 57.17157287525381 91.17157287525386 -96.4999999999997
    vertex 58.00000000000001 90.53589838486229 -96.4999999999997
  endloop
endfacet
facet normal -0.9914448613738104 0.13052619222005216 0.0
  outer loop
    vertex 64.0 94.00000000000006 -96.4999999999997
    vertex 63.86370330515628 92.96472381958998 -106.49999999999969
    vertex 63.86370330515628 92.96472381958998 -96.4999999999997
  endloop
endfacet
facet normal -0.9914448613738104 0.13052619222005216 0.0
  outer loop
    vertex 63.86370330515628 92.96472381958998 -106.49999999999969
    vertex 64.0 94.00000000000006 -96.4999999999997
    vertex 64.0 94.00000000000006 -106.49999999999969
  endloop
endfacet
facet normal 0.13052619222005216 0.9914448613738104 0.0
  outer loop
    vertex 58.96472381958992 90.13629669484378 -96.4999999999997
    vertex 60.0 90.00000000000004 -106.49999999999969
    vertex 58.96472381958992 90.13629669484378 -106.49999999999969
  endloop
endfacet
facet normal 0.13052619222005216 0.9914448613738104 0.0
  outer loop
    vertex 60.0 90.00000000000004 -106.49999999999969
    vertex 58.96472381958992 90.13629669484378 -96.4999999999997
    vertex 60.0 90.00000000000004 -96.4999999999997
  endloop
endfacet
facet normal -0.13052619222005077 0.9914448613738106 0.0
  outer loop
    vertex 60.0 90.00000000000004 -96.4999999999997
    vertex 61.035276180410094 90.13629669484378 -106.49999999999969
    vertex 60.0 90.00000000000004 -106.49999999999969
  endloop
endfacet
facet normal -0.13052619222005077 0.9914448613738106 0.0
  outer loop
    vertex 61.035276180410094 90.13629669484378 -106.49999999999969
    vertex 60.0 90.00000000000004 -96.4999999999997
    vertex 61.035276180410094 90.13629669484378 -96.4999999999997
  endloop
endfacet
endsolid AMBU_CarryM8
